<?xml version="1.0" encoding="UTF-8" standalone="no"?>
<!DOCTYPE svg PUBLIC "-//W3C//DTD SVG 1.1//EN" "http://www.w3.org/Graphics/SVG/1.1/DTD/svg11.dtd">
<svg width="100%" height="100%" viewBox="0 0 1280 698" version="1.1" xmlns="http://www.w3.org/2000/svg" xmlns:xlink="http://www.w3.org/1999/xlink" xml:space="preserve" xmlns:serif="http://www.serif.com/" style="fill-rule:evenodd;clip-rule:evenodd;stroke-linejoin:round;stroke-miterlimit:2;">
    <g transform="matrix(1,0,0,1,341.1875,276.75)">
        <path d="M0,0C2.548,1.757 3.504,3.447 4.812,6.25C4.814,7.351 4.815,8.452 4.816,9.586C5.941,13.724 6.326,13.994 9.828,16.059C11.56,16.96 13.306,17.835 15.062,18.688C16.896,19.623 18.728,20.562 20.559,21.504C21.457,21.962 22.355,22.419 23.281,22.891C25.545,24.107 27.66,25.398 29.785,26.84C30.359,27.228 30.933,27.616 31.524,28.016C33.023,29.055 34.507,30.116 35.988,31.18C38.94,32.648 38.94,32.648 42.445,30.945C43.556,30.386 44.668,29.826 45.812,29.25C50.628,29.25 53.978,30.27 57.582,33.594C59.96,36.795 60.584,40.329 60.812,44.25C60.106,48.224 59.045,49.07 55.812,51.562C52.812,53.25 52.812,53.25 50.812,53.25C50.807,58.589 50.841,63.927 50.91,69.266C50.928,71.081 50.936,72.897 50.933,74.713C50.93,77.325 50.965,79.935 51.008,82.547C50.999,83.357 50.99,84.168 50.98,85.003C51.038,87.243 51.145,89.11 51.812,91.25C54.649,93.753 54.649,93.753 57.812,95.25C60.191,98.278 60.178,101.498 60.059,105.289C59.683,108.286 58.772,109.964 56.812,112.25C52.737,114.876 49.644,115.787 44.812,115.25C43.328,114.26 43.328,114.26 41.812,113.25C36.252,113.428 32.332,116.022 27.75,118.875C19.114,124.182 19.114,124.182 14.883,126.117C8.651,128.688 8.651,128.688 4.746,133.762C4.277,136.411 4.277,136.411 4.125,139.008C3.812,141.25 3.812,141.25 1.312,143.812C-2.868,146.216 -5.277,146.659 -10.188,146.25C-13.891,144.223 -15.841,142.77 -18.188,139.25C-18.602,136.988 -18.602,136.988 -18.812,134.562C-18.887,133.754 -18.962,132.946 -19.039,132.113C-19.088,131.498 -19.137,130.884 -19.188,130.25C-19.844,130.182 -20.5,130.113 -21.176,130.043C-25.371,128.938 -28.69,126.808 -32.375,124.562C-33.129,124.114 -33.883,123.665 -34.659,123.202C-37.921,121.254 -41.151,119.273 -44.348,117.219C-45.202,116.672 -46.057,116.126 -46.938,115.562C-47.654,115.084 -48.371,114.606 -49.109,114.113C-51.841,112.979 -53.395,113.413 -56.188,114.25C-57.178,114.745 -57.178,114.745 -58.188,115.25C-63.144,115.624 -66.222,115.374 -70.188,112.25L-70.188,110.25L-72.188,110.25C-74.051,106.522 -73.752,102.308 -73.188,98.25C-71.81,95.537 -70.527,94.318 -68.188,92.25L-65.188,92.25C-65.182,86.768 -65.216,81.289 -65.285,75.807C-65.303,73.943 -65.311,72.079 -65.308,70.214C-65.305,67.532 -65.34,64.853 -65.383,62.172C-65.374,61.339 -65.365,60.507 -65.355,59.649C-65.413,57.361 -65.516,55.439 -66.188,53.25C-69.045,50.756 -69.045,50.756 -72.188,49.25C-74.058,45.508 -73.719,41.325 -73.188,37.25C-71.752,33.804 -69.565,31.85 -66.098,30.34C-61.76,29.102 -59.977,28.864 -55.762,30.922C-52.297,32.657 -52.297,32.657 -49.293,31.145C-48.33,30.457 -47.367,29.77 -46.375,29.062C-45.261,28.304 -44.143,27.55 -43.023,26.801C-42.42,26.39 -41.816,25.98 -41.194,25.557C-37.41,23.092 -33.45,20.935 -29.5,18.75C-28.709,18.305 -27.919,17.86 -27.104,17.402C-26.365,16.991 -25.625,16.58 -24.863,16.156C-24.202,15.788 -23.542,15.42 -22.861,15.041C-21.188,14.25 -21.188,14.25 -19.188,14.25C-19.113,13.586 -19.038,12.922 -18.961,12.238C-17.753,4.125 -17.753,4.125 -14.25,1.188C-9.05,-2.102 -5.736,-1.966 0,0ZM-20.793,21.121C-21.523,21.526 -22.252,21.931 -23.004,22.348C-26.256,24.185 -29.503,26.03 -32.747,27.882C-35.038,29.166 -37.35,30.391 -39.68,31.602C-46.601,34.972 -46.601,34.972 -51.336,40.672C-51.62,43.024 -51.54,44.916 -51.188,47.25L-51.188,51.25C-49.224,54.171 -47.044,56.851 -44.84,59.594C-43.188,62.25 -43.188,62.25 -43.441,64.594C-43.688,65.14 -43.934,65.687 -44.188,66.25C-45.895,66.129 -45.895,66.129 -48.188,65.25C-49.891,63.254 -51.388,61.331 -52.875,59.188C-54.292,57.19 -55.726,55.215 -57.188,53.25L-58.188,53.25C-59.143,61.665 -59.309,69.974 -59.25,78.438C-59.245,79.676 -59.241,80.914 -59.236,82.189C-59.225,85.21 -59.208,88.23 -59.188,91.25C-54.894,89.819 -53.696,86.592 -51.5,82.875C-48.467,77.867 -45.386,73.006 -41.875,68.312C-38.529,63.833 -35.74,59.221 -33.188,54.25C-33.682,53.755 -33.682,53.755 -34.188,53.25C-34.713,48.602 -34.825,44.553 -32.75,40.312C-30.123,38.198 -28.983,37.904 -25.812,37.188C-22.39,36.226 -21.362,35.496 -19.27,32.539C-16.908,27.906 -15.188,24.505 -15.188,19.25C-17.626,19.25 -18.669,19.936 -20.793,21.121ZM1.812,19.25C1.482,19.91 1.153,20.57 0.812,21.25C1.727,23.596 2.69,25.847 3.75,28.125C5.554,32.006 6.812,34.854 6.812,39.25C5.162,39.58 3.513,39.91 1.812,40.25C1.631,39.609 1.449,38.969 1.262,38.309C-0.25,33.106 -1.938,28.179 -4.188,23.25L-9.188,23.25C-10.444,25.635 -11.667,28.028 -12.875,30.438C-13.234,31.111 -13.593,31.785 -13.963,32.479C-15.623,35.847 -16.412,37.574 -15.203,41.211C-13.383,43.404 -13.383,43.404 -10.973,43.809C-10.074,43.769 -9.176,43.729 -8.25,43.688C-6.649,43.622 -6.649,43.622 -5.016,43.555C0.354,43.127 5.713,42.611 11.069,42.037C19.304,41.159 27.542,40.657 35.812,40.25C34.594,36.595 33.755,36.36 30.473,34.543C29.574,34.038 28.674,33.534 27.748,33.014C26.8,32.494 25.852,31.973 24.875,31.438C23.032,30.411 21.189,29.384 19.348,28.355C18.435,27.849 17.523,27.343 16.583,26.822C12.935,24.752 9.367,22.561 5.806,20.345C3.899,19.09 3.899,19.09 1.812,19.25ZM18.75,46.688C18.056,46.727 17.362,46.766 16.646,46.807C13.821,46.981 11.071,47.198 8.293,47.754C3.663,48.68 -1.082,48.71 -5.789,48.969C-9.174,49.114 -9.174,49.114 -12.188,50.25C-14.104,52.5 -14.104,52.5 -15.188,55.25C-13.944,58.434 -11.971,61.178 -10.062,64C-9.524,64.799 -8.985,65.598 -8.43,66.422C-8.02,67.025 -7.61,67.628 -7.188,68.25C-2.546,66.924 0.829,64.934 4.812,62.25C7.188,61.5 7.188,61.5 8.812,61.25C9.143,63.23 9.473,65.21 9.812,67.25C9.152,67.498 8.492,67.745 7.812,68C4.049,69.568 0.441,71.395 -3.188,73.25C-2.694,74.021 -2.2,74.792 -1.691,75.586C-1.051,76.589 -0.41,77.592 0.25,78.625C0.888,79.623 1.526,80.62 2.184,81.648C3.812,84.25 3.812,84.25 4.812,86.25C6.205,86.219 6.205,86.219 7.625,86.188C10.812,86.25 10.812,86.25 13.812,87.25C14.453,86.283 15.094,85.316 15.754,84.32C23.612,72.486 23.612,72.486 27.562,66.938C30.916,62.198 33.897,57.269 36.812,52.25C32.419,53.846 28.523,56.03 24.5,58.375C23.855,58.748 23.21,59.12 22.545,59.504C20.966,60.416 19.389,61.333 17.812,62.25C18.304,63.646 18.304,63.646 18.805,65.07C19.747,68.042 19.994,70.17 19.812,73.25C18.492,73.58 17.172,73.91 15.812,74.25C14.851,71.73 13.893,69.209 12.938,66.688C12.668,65.983 12.399,65.279 12.121,64.553C10.462,60.162 9.039,55.781 7.812,51.25C8.803,50.92 9.793,50.59 10.812,50.25C13.596,51.642 13.791,53.406 14.812,56.25C21.041,53.614 26.954,50.629 32.812,47.25L32.812,46.25C28.11,46.198 23.442,46.394 18.75,46.688ZM43.812,53.25C38.984,59.338 34.724,65.824 30.613,72.41C28.011,76.514 25.261,80.516 22.512,84.523C20.922,87.074 19.705,89.382 18.812,92.25C19.142,92.91 19.473,93.57 19.812,94.25C20.19,99.247 19.905,102.241 16.812,106.25C13.844,108.229 12.951,108.608 9.562,108.75C8.835,108.802 8.108,108.853 7.359,108.906C4.461,108.159 3.718,107.291 1.637,105.219C-1.227,102.628 -2.968,101.822 -6.84,101.812C-8.604,101.925 -10.366,102.073 -12.125,102.25C-13.536,102.356 -13.536,102.356 -14.975,102.463C-16.988,102.618 -18.999,102.787 -21.009,102.969C-24.314,103.261 -27.619,103.493 -30.93,103.715C-33.12,103.871 -35.31,104.028 -37.5,104.188C-38.55,104.262 -39.6,104.336 -40.681,104.412C-41.649,104.491 -42.616,104.571 -43.613,104.652C-44.473,104.719 -45.334,104.786 -46.22,104.855C-46.869,104.986 -47.519,105.116 -48.188,105.25C-48.517,105.91 -48.847,106.57 -49.188,107.25C-48.614,107.577 -48.041,107.904 -47.45,108.24C-26.388,120.252 -26.388,120.252 -16.188,126.25C-14.841,122.211 -16.364,119.97 -18.062,116.312C-21.504,108.746 -21.504,108.746 -22.188,105.25C-19.371,105.812 -19.371,105.812 -16.188,107.25C-14.645,110.225 -13.635,113.017 -12.643,116.195C-11.929,118.347 -11.929,118.347 -10.188,121.25C-6.864,122.603 -6.864,122.603 -3.188,123.25C-1.677,124.161 -1.677,124.161 -0.137,125.09C2.834,126.651 2.834,126.651 5.855,125.004C6.893,124.281 7.931,123.558 9,122.812C10.143,122.044 11.287,121.279 12.434,120.516C13.001,120.13 13.568,119.743 14.152,119.346C16.544,117.767 19.036,116.413 21.562,115.062C22.442,114.579 23.321,114.096 24.227,113.598C26.812,112.25 26.812,112.25 29.461,111.121C32.862,109.581 35.164,108.446 36.977,105.102C37.707,102.015 37.73,100.308 36.812,97.25C34.574,94.587 32.361,92.306 29.69,90.093C28.156,88.793 28.156,88.793 25.812,86.25C25.969,83.426 25.969,83.426 26.812,81.25L30.812,81.25C31.072,81.834 31.331,82.418 31.598,83.02C32.9,85.41 34.321,87.025 36.25,88.938C37.145,89.84 37.145,89.84 38.059,90.762C39.851,92.47 39.851,92.47 42.812,93.25C43.472,92.92 44.133,92.59 44.812,92.25L44.812,53.25L43.812,53.25ZM-36.087,69.379C-38.079,72.765 -40.305,75.995 -42.5,79.25C-43.131,80.201 -43.131,80.201 -43.775,81.172C-45.448,83.692 -47.127,86.172 -48.98,88.562C-50.381,90.175 -50.381,90.175 -50.188,92.25C-46.489,90.877 -43.236,89.186 -39.875,87.125C-38.992,86.586 -38.109,86.047 -37.199,85.492C-36.535,85.082 -35.871,84.672 -35.188,84.25C-35.517,83.507 -35.847,82.765 -36.188,82C-37.188,79.25 -37.188,79.25 -37.188,75.25L-33.188,75.25C-30.938,78.25 -30.938,78.25 -29.188,81.25C-26.915,80.127 -24.645,79.002 -22.375,77.875C-21.732,77.558 -21.09,77.241 -20.428,76.914C-17.556,75.485 -14.861,74.032 -12.188,72.25C-13.746,67.264 -16.299,62.757 -20.188,59.25C-22.671,58.153 -24.202,57.965 -26.902,58.23C-31.588,60.321 -33.636,65.084 -36.087,69.379ZM-26.188,87.25C-25.198,89.89 -24.207,92.53 -23.188,95.25L-29.188,95.25C-29.848,93.6 -30.508,91.95 -31.188,90.25C-37.154,91.82 -42.017,95 -47.188,98.25C-43.786,99.384 -41.577,99.224 -38.008,98.98C-36.768,98.896 -35.528,98.812 -34.25,98.725C-32.951,98.63 -31.651,98.535 -30.312,98.438C-28.421,98.313 -28.421,98.313 -26.492,98.186C-20.268,97.747 -14.059,97.201 -7.867,96.426C-6.82,96.297 -5.773,96.169 -4.695,96.036C-2.059,95.49 -2.059,95.49 -0.823,93.297C-0.027,90.734 -0.179,89.734 -1.188,87.25C-2.293,85.461 -3.466,83.712 -4.688,82C-5.317,81.108 -5.946,80.216 -6.594,79.297C-7.12,78.621 -7.646,77.946 -8.188,77.25C-13.706,77.25 -21.664,84.072 -26.188,87.25Z" style="fill:rgb(103,232,249);fill-rule:nonzero;"/>
    </g>
    <g transform="matrix(1,0,0,1,570.053467,290.870605)">
        <path d="M0,0C1.874,-0.005 1.874,-0.005 3.786,-0.01C5.156,-0.008 6.526,-0.006 7.896,-0.003C9.31,-0.004 10.725,-0.005 12.14,-0.006C15.115,-0.008 18.09,-0.006 21.065,-0.001C24.831,0.005 28.597,0.001 32.363,-0.005C35.293,-0.008 38.223,-0.007 41.153,-0.004C42.539,-0.004 43.924,-0.005 45.309,-0.007C55.239,-0.02 65.045,0.436 74.947,1.129L74.947,21.129C55.147,21.459 35.347,21.789 14.947,22.129C14.617,30.379 14.287,38.629 13.947,47.129C17.761,47.118 21.575,47.106 25.505,47.094C29.182,47.086 32.859,47.08 36.536,47.074C39.099,47.069 41.663,47.063 44.227,47.054C47.903,47.042 51.579,47.036 55.255,47.032C56.409,47.027 57.563,47.021 58.753,47.016C60.344,47.016 60.344,47.016 61.968,47.016C62.907,47.014 63.846,47.011 64.814,47.009C66.947,47.129 66.947,47.129 67.947,48.129L67.947,67.129C50.457,67.459 32.967,67.789 14.947,68.129C14.617,77.039 14.287,85.949 13.947,95.129L75.947,95.129C77.587,98.411 77.089,102.027 77.072,105.629C77.075,106.414 77.079,107.199 77.083,108.008C77.073,113.876 77.073,113.876 75.947,116.129C65.012,116.153 54.077,116.17 43.142,116.181C38.065,116.186 32.988,116.194 27.911,116.205C23.015,116.216 18.12,116.222 13.225,116.224C11.353,116.226 9.481,116.23 7.609,116.235C4.996,116.242 2.384,116.243 -0.229,116.243C-1.011,116.247 -1.793,116.25 -2.598,116.254C-7.939,116.243 -7.939,116.243 -9.053,115.129C-9.149,113.649 -9.175,112.165 -9.174,110.681C-9.175,109.721 -9.176,108.76 -9.178,107.77C-9.174,106.708 -9.171,105.646 -9.167,104.551C-9.167,103.439 -9.167,102.327 -9.167,101.181C-9.167,97.486 -9.159,93.79 -9.151,90.094C-9.149,87.54 -9.148,84.985 -9.147,82.431C-9.143,76.382 -9.136,70.333 -9.125,64.284C-9.114,57.399 -9.109,50.514 -9.104,43.629C-9.093,29.462 -9.076,15.296 -9.053,1.129C-5.798,0.044 -3.426,0.002 0,0Z" style="fill:rgb(103,232,249);fill-rule:nonzero;"/>
    </g>
    <g transform="matrix(1,0,0,1,900,292)">
        <path d="M0,0L24,0C27.507,7.444 30.983,14.885 34.25,22.438C37.236,29.337 40.355,36.171 43.5,43C46.645,49.829 49.763,56.663 52.75,63.562C55.494,69.899 58.373,76.162 61.312,82.41C63.402,86.856 65.463,91.315 67.508,95.781C68.565,98.062 69.646,100.332 70.742,102.594C71.302,103.759 71.861,104.924 72.438,106.125C72.952,107.179 73.466,108.234 73.996,109.32C75,112 75,112 74,115C70.229,115.116 66.459,115.187 62.688,115.25C61.616,115.284 60.544,115.317 59.439,115.352C57.897,115.371 57.897,115.371 56.324,115.391C55.376,115.412 54.428,115.433 53.452,115.454C51,115 51,115 49.295,113.255C48.026,111.045 46.942,108.874 45.957,106.523C45.43,105.27 45.43,105.27 44.893,103.992C44.536,103.129 44.18,102.265 43.812,101.375C43.444,100.504 43.076,99.632 42.697,98.734C40,92.269 40,92.269 40,90L-17,90C-17.99,92.97 -18.98,95.94 -20,99C-20.997,101.68 -22.009,104.343 -23.062,107C-23.318,107.666 -23.574,108.333 -23.838,109.02C-25.764,113.882 -25.764,113.882 -28,115C-29.667,115.084 -31.338,115.107 -33.008,115.098C-33.994,115.094 -34.98,115.091 -35.996,115.088C-37.029,115.08 -38.061,115.071 -39.125,115.062C-40.685,115.056 -40.685,115.056 -42.277,115.049C-44.852,115.037 -47.426,115.021 -50,115C-51.089,111.243 -51.089,111.243 -50.285,109.055C-49.68,107.976 -49.68,107.976 -49.062,106.875C-46.539,102.121 -44.294,97.298 -42.125,92.375C-41.782,91.6 -41.44,90.824 -41.086,90.026C-39.439,86.291 -37.803,82.552 -36.176,78.809C-33.087,71.706 -29.931,64.65 -26.625,57.646C-24.494,53.113 -22.481,48.537 -20.5,43.938C-17.767,37.6 -14.757,31.464 -11.625,25.312C-9.665,21.316 -7.965,17.25 -6.336,13.109C-4.42,8.65 -2.171,4.341 0,0ZM11,25C9.237,29.033 7.477,33.067 5.72,37.103C5.125,38.47 4.529,39.836 3.931,41.202C0.415,49.243 -2.961,57.3 -6.048,65.517C-7,68 -7,68 -8,70L31,70C29.637,65.911 28.262,62.117 26.562,58.188C26.046,56.993 25.529,55.798 24.996,54.566C20.691,44.699 16.346,34.849 12,25L11,25Z" style="fill:rgb(103,232,249);fill-rule:nonzero;"/>
    </g>
    <g transform="matrix(1,0,0,1,804.324219,291.121094)">
        <path d="M0,0C1.028,0.048 2.056,0.097 3.115,0.146C4.187,0.203 5.259,0.259 6.363,0.316C7.447,0.369 8.53,0.421 9.646,0.475C12.323,0.604 15,0.739 17.676,0.879C17.17,3.048 16.676,4.879 15.676,6.879L13.676,6.879C13.449,7.551 13.222,8.222 12.988,8.914C11.304,12.718 9.063,15.922 6.676,19.316C6.186,20.021 5.696,20.725 5.191,21.451C2.054,25.952 -1.128,30.42 -4.324,34.879C-5.557,36.605 -6.789,38.331 -8.021,40.058C-8.927,41.324 -9.836,42.587 -10.749,43.849C-22.375,59.487 -22.375,59.487 -25.801,78.207C-24.795,83.847 -22.754,88.823 -18.316,92.578C-12.16,96.542 -6.603,97.772 0.676,96.879C5.931,95.207 10.375,93.122 13.238,88.254C15.967,81.847 17.095,75.321 14.922,68.52C12.717,63.919 10.2,60.114 5.504,57.816C2.079,56.681 -1.038,56.456 -4.637,56.254C-5.891,56.179 -7.145,56.104 -8.438,56.027C-9.39,55.978 -10.343,55.929 -11.324,55.879C-10.584,49.231 -6.079,45.23 -1.324,40.879C4.396,38.019 10.529,38.561 16.676,39.879C26.584,43.581 33.303,51.121 37.766,60.484C41.647,70.695 40.733,83.47 36.605,93.473C34.269,98.469 31.911,102.248 27.676,105.879C26.906,106.616 26.906,106.616 26.121,107.367C17.451,115.418 5.969,118.483 -5.75,118.125C-19.479,116.813 -30.02,113.222 -39.57,103.074C-47.465,93.193 -49.312,81.213 -48.324,68.879C-45.39,49.668 -31.219,33.43 -20.23,17.996C-18.341,15.336 -16.487,12.658 -14.668,9.949C-14.259,9.344 -13.851,8.739 -13.43,8.116C-12.335,6.489 -11.249,4.856 -10.164,3.223C-7.219,-0.529 -4.461,-0.222 0,0Z" style="fill:rgb(103,232,249);fill-rule:nonzero;"/>
    </g>
    <g transform="matrix(1,0,0,1,434,292)">
        <path d="M0,0C4.04,-0.262 8.079,-0.422 12.125,-0.562C13.267,-0.638 14.409,-0.713 15.586,-0.791C23.898,-1.008 23.898,-1.008 27.034,1.861C28.586,4.176 29.821,6.477 31,9C31.58,9.942 32.16,10.885 32.758,11.855C33.209,12.625 33.66,13.395 34.125,14.188C35.691,16.832 37.269,19.396 39,21.938C40.728,24.583 42.207,27.214 43.688,30C47.4,36.919 51.692,43.442 56,50C60.933,43.14 65.468,36.12 69.812,28.875C71.031,26.859 72.249,24.843 73.469,22.828C74.063,21.845 74.657,20.862 75.27,19.85C77.755,15.757 80.275,11.686 82.812,7.625C83.227,6.96 83.641,6.294 84.068,5.609C86.875,1.125 86.875,1.125 88,0C89.781,-0.087 91.565,-0.107 93.348,-0.098C94.427,-0.094 95.507,-0.091 96.619,-0.088C98.324,-0.075 98.324,-0.075 100.062,-0.062C101.773,-0.056 101.773,-0.056 103.518,-0.049C106.345,-0.037 109.173,-0.021 112,0C111.063,4.42 108.812,7.84 106.438,11.625C105.441,13.233 104.445,14.841 103.449,16.449C102.902,17.329 102.354,18.208 101.791,19.115C99.836,22.264 97.895,25.422 95.957,28.582C84.739,46.864 84.739,46.864 80.516,53.473C79.954,54.377 79.392,55.282 78.814,56.214C77,59 77,59 74.817,61.811C67.43,71.96 67.901,81.604 68.062,93.75C68.063,96.648 68.053,99.546 68.041,102.445C68.037,104.235 68.043,106.026 68.061,107.817C68.076,109.878 68.043,111.939 68,114C67,115 67,115 64.867,115.114C63.951,115.108 63.034,115.103 62.09,115.098C61.1,115.094 60.111,115.091 59.092,115.088C58.051,115.08 57.01,115.071 55.938,115.062C54.893,115.058 53.848,115.053 52.771,115.049C50.181,115.037 47.59,115.021 45,115C43.399,111.798 44.032,108.336 44.141,104.828C44.505,84.903 44.49,69.399 31.638,53.099C29.315,50.122 27.362,46.955 25.375,43.75C24.67,42.67 23.965,41.59 23.238,40.477C20.114,35.664 17.154,30.75 14.18,25.844C11.849,22.006 9.495,18.187 7.078,14.402C6.613,13.672 6.149,12.942 5.67,12.189C4.784,10.802 3.893,9.418 2.996,8.038C0,3.332 0,3.332 0,0Z" style="fill:rgb(103,232,249);fill-rule:nonzero;"/>
    </g>
    <g transform="matrix(1,0,0,1,674.546875,291.121094)">
        <path d="M0,0C0.844,0.048 1.689,0.097 2.559,0.146C3.431,0.203 4.304,0.259 5.203,0.316C6.535,0.395 6.535,0.395 7.895,0.475C10.081,0.604 12.267,0.739 14.453,0.879C15.649,5.123 15.543,9.22 15.475,13.595C15.465,14.473 15.456,15.352 15.446,16.257C15.413,19.157 15.372,22.057 15.332,24.957C15.308,26.969 15.284,28.981 15.26,30.993C15.198,36.287 15.129,41.581 15.058,46.874C14.988,52.277 14.923,57.679 14.857,63.082C14.728,73.681 14.593,84.28 14.453,94.879C15.165,94.877 15.877,94.874 16.61,94.872C23.306,94.852 30.001,94.837 36.697,94.827C40.14,94.822 43.582,94.815 47.025,94.803C50.979,94.791 54.933,94.786 58.887,94.781C60.749,94.774 60.749,94.774 62.649,94.766C63.79,94.766 64.931,94.765 66.107,94.765C67.118,94.763 68.128,94.761 69.169,94.759C71.453,94.879 71.453,94.879 72.453,95.879C72.552,97.282 72.584,98.691 72.586,100.098C72.587,100.947 72.589,101.797 72.59,102.672C72.586,103.565 72.582,104.459 72.578,105.379C72.582,106.272 72.586,107.166 72.59,108.086C72.589,108.935 72.587,109.785 72.586,110.66C72.585,111.445 72.584,112.229 72.583,113.037C72.453,114.879 72.453,114.879 71.453,115.879C68.994,115.979 66.563,116.015 64.104,116.008C63.334,116.01 62.565,116.012 61.773,116.014C59.218,116.018 56.664,116.015 54.109,116.012C52.342,116.012 50.575,116.013 48.807,116.015C45.098,116.016 41.389,116.014 37.68,116.009C32.915,116.004 28.15,116.007 23.384,116.013C19.733,116.016 16.082,116.015 12.431,116.013C10.674,116.012 8.916,116.013 7.159,116.015C4.707,116.018 2.255,116.014 -0.197,116.008C-0.931,116.01 -1.664,116.012 -2.42,116.014C-7.433,115.993 -7.433,115.993 -8.547,114.879C-8.643,113.399 -8.669,111.914 -8.667,110.431C-8.669,109.47 -8.67,108.51 -8.671,107.52C-8.668,106.458 -8.664,105.395 -8.66,104.301C-8.661,103.188 -8.661,102.076 -8.661,100.931C-8.66,97.235 -8.652,93.539 -8.645,89.844C-8.643,87.289 -8.641,84.735 -8.64,82.18C-8.637,76.131 -8.629,70.082 -8.619,64.033C-8.608,57.148 -8.602,50.263 -8.597,43.378C-8.587,29.212 -8.569,15.045 -8.547,0.879C-5.539,0.074 -3.117,-0.19 0,0Z" style="fill:rgb(103,232,249);fill-rule:nonzero;"/>
    </g>
    <g transform="matrix(1,0,0,1,271,310)">
        <path d="M0,0C0.99,0.33 1.98,0.66 3,1C2.51,1.402 2.02,1.804 1.516,2.219C-0.4,4.47 -0.347,5.587 -0.25,8.5C-0.235,9.273 -0.219,10.047 -0.203,10.844C-0.065,13.182 -0.065,13.182 1,16C1.825,16.33 5.15,17.66 6,18C6.33,18.99 6.66,19.98 7,21L9,21L9,19L11,19C11.963,27 12.11,34.951 12.125,43C12.13,44.015 12.134,45.03 12.139,46.076C12.137,47.041 12.135,48.006 12.133,49C12.132,49.866 12.131,50.733 12.129,51.625C12.006,53.884 11.631,55.834 11,58C14.185,55.184 16.323,51.655 18.625,48.125C19.515,46.781 20.406,45.437 21.297,44.094C22.629,42.08 23.958,40.064 25.279,38.043C26.467,36.23 27.67,34.427 28.875,32.625C29.574,31.565 30.272,30.506 30.992,29.414C33,27 33,27 35.258,26.148C35.833,26.099 36.408,26.05 37,26C37.33,23.69 37.66,21.38 38,19C38.526,19.742 38.526,19.742 39.062,20.5C41.021,22.356 41.021,22.356 44.25,21.812C48.858,22.043 50.313,23.394 53.617,26.395C55,28 55,28 56,31C56.495,30.505 56.495,30.505 57,30C56.299,29.196 55.597,28.391 54.875,27.562C53.345,25.332 52.975,24.332 53.18,21.598C53.696,19.358 54.282,17.183 55,15C55.66,15.33 56.32,15.66 57,16L57,25C58.29,27.129 58.29,27.129 60,29.125C63,32.806 63,32.806 63,35C63.82,34.495 64.64,33.989 65.484,33.469C66.562,32.819 67.64,32.169 68.75,31.5C69.817,30.85 70.885,30.201 71.984,29.531C75,28 75,28 79,28C79.495,30.97 79.495,30.97 80,34C76.04,36.31 72.08,38.62 68,41C68.804,42.031 69.609,43.062 70.438,44.125C72.778,47.371 73.704,49.949 74,54C72.68,52.68 71.36,51.36 70,50C70.495,50.835 70.495,50.835 71,51.688C72.214,54.495 72.424,55.958 72,59C70.819,61.464 69.457,63.678 68,66C71.881,70.097 74.346,72.668 80,73.375C83.022,73.21 83.022,73.21 85.312,71.562C87.719,67.908 88.038,64.331 88,60C87.56,57.799 87.56,57.799 87,56C87.66,55.67 88.32,55.34 89,55C90.76,59.509 91.518,63.163 91,68C88.973,71.704 87.52,73.654 84,76C81.984,76.406 81.984,76.406 79.75,76.5C79.023,76.552 78.296,76.603 77.547,76.656C74.648,75.909 73.906,75.041 71.824,72.969C68.961,70.378 67.22,69.572 63.348,69.562C61.584,69.675 59.821,69.823 58.062,70C57.123,70.069 56.183,70.138 55.214,70.209C52.14,70.442 49.071,70.721 46,71C43.741,71.181 41.482,71.36 39.223,71.535C33.479,71.989 27.739,72.481 22,73C25.929,75.869 29.748,78.549 34.062,80.812C38.649,83.259 43.179,85.788 47.688,88.375C48.312,88.733 48.937,89.091 49.58,89.46C51.054,90.306 52.527,91.153 54,92C52.608,87.645 51.213,83.351 49.312,79.188C48,76 48,76 48,72C50.25,71.625 50.25,71.625 53,72C55.411,74.776 56.697,77.057 57.82,80.555C58.691,83.26 59.493,85.585 61,88C63.358,89.115 65.291,89.474 67.879,89.719C70,90 70,90 73,92C73.536,91.649 74.073,91.299 74.625,90.938C77.733,89.711 79.794,90.271 83,91C80.473,95.802 80.473,95.802 77.949,96.859C75.769,97.835 75.769,97.835 75.348,100.242C75.254,101.111 75.159,101.98 75.062,102.875C74.453,106.68 74.285,107.708 71.5,110.562C67.32,112.966 64.91,113.409 60,113C56.296,110.973 54.346,109.52 52,106C51.586,103.738 51.586,103.738 51.375,101.312C51.3,100.504 51.225,99.696 51.148,98.863C51.099,98.248 51.05,97.634 51,97C50.344,96.932 49.688,96.863 49.012,96.793C44.817,95.688 41.497,93.558 37.812,91.312C37.059,90.864 36.305,90.415 35.528,89.952C32.266,88.004 29.036,86.023 25.84,83.969C24.985,83.422 24.131,82.876 23.25,82.312C22.533,81.834 21.817,81.356 21.078,80.863C18.347,79.729 16.792,80.163 14,81C13.01,81.495 13.01,81.495 12,82C7.043,82.374 3.965,82.124 0,79L0,77L-2,77C-3.864,73.272 -3.565,69.058 -3,65C-1.622,62.287 -0.34,61.068 2,59L5,59C5.005,53.518 4.972,48.039 4.902,42.557C4.884,40.693 4.877,38.829 4.88,36.964C4.883,34.282 4.847,31.603 4.805,28.922C4.814,28.089 4.823,27.257 4.832,26.399C4.775,24.111 4.671,22.189 4,20C1.143,17.506 1.143,17.506 -2,16C-3.22,13.56 -3.202,11.847 -3.25,9.125C-3.276,8.261 -3.302,7.398 -3.328,6.508C-2.941,3.55 -1.951,2.208 0,0ZM34.101,36.129C32.109,39.515 29.883,42.745 27.688,46C27.056,46.951 27.056,46.951 26.412,47.922C24.74,50.442 23.061,52.922 21.207,55.312C19.806,56.925 19.806,56.925 20,59C23.699,57.627 26.951,55.936 30.312,53.875C31.196,53.336 32.079,52.797 32.988,52.242C33.652,51.832 34.316,51.422 35,51C34.67,50.258 34.34,49.515 34,48.75C33,46 33,46 33,42L37,42C39.25,45 39.25,45 41,48C43.272,46.877 45.543,45.752 47.812,44.625C48.455,44.308 49.098,43.991 49.76,43.664C52.632,42.235 55.327,40.782 58,39C56.442,34.014 53.889,29.507 50,26C47.516,24.903 45.985,24.715 43.285,24.98C38.6,27.071 36.552,31.834 34.101,36.129ZM44,54C44.99,56.64 45.98,59.28 47,62L41,62C40.34,60.35 39.68,58.7 39,57C33.033,58.57 28.171,61.75 23,65C26.402,66.134 28.611,65.974 32.18,65.73C33.42,65.646 34.66,65.562 35.938,65.475C37.237,65.38 38.536,65.285 39.875,65.188C41.766,65.063 41.766,65.063 43.695,64.936C49.92,64.497 56.128,63.951 62.32,63.176C63.367,63.047 64.414,62.919 65.493,62.786C68.128,62.24 68.128,62.24 69.365,60.047C70.16,57.484 70.009,56.484 69,54C67.894,52.211 66.722,50.462 65.5,48.75C64.871,47.858 64.242,46.966 63.594,46.047C63.068,45.371 62.542,44.696 62,44C56.482,44 48.523,50.822 44,54Z" style="fill:rgb(103,232,249);fill-rule:nonzero;"/>
    </g>
    <g transform="matrix(1,0,0,1,989,292)">
        <path d="M0,0L23,0L23,115L1,115C0,114 0,114 -0.123,112.097C-0.122,111.257 -0.121,110.417 -0.12,109.552C-0.122,108.591 -0.123,107.631 -0.124,106.641C-0.121,105.579 -0.117,104.516 -0.114,103.422C-0.114,102.31 -0.114,101.198 -0.114,100.052C-0.113,96.356 -0.105,92.66 -0.098,88.965C-0.096,86.41 -0.094,83.856 -0.093,81.301C-0.09,75.252 -0.082,69.203 -0.072,63.154C-0.061,56.269 -0.055,49.384 -0.05,42.499C-0.04,28.333 -0.022,14.166 0,0Z" style="fill:rgb(103,232,249);fill-rule:nonzero;"/>
    </g>
    <g transform="matrix(1,0,0,1,276,351)">
        <path d="M0,0L2,0C2.19,3.065 2.328,6.119 2.438,9.188C2.496,10.052 2.555,10.916 2.615,11.807C2.684,14.38 2.659,16.508 2,19C0.315,20.676 -1.371,21.748 -3.422,22.937C-5.253,23.928 -5.253,23.928 -5.719,26.387C-5.647,27.146 -5.574,27.905 -5.5,28.688C-5.448,29.454 -5.397,30.221 -5.344,31.012C-5.087,33.066 -5.087,33.066 -4,35C-0.571,37.204 1.392,38.033 5.5,37.812C8.759,37.056 11.859,36.149 15,35C14.34,33.68 13.68,32.36 13,31C16.316,28.789 17.799,28.647 21.699,28.367C22.827,28.283 23.954,28.2 25.115,28.113C26.294,28.035 27.473,27.956 28.688,27.875C29.847,27.789 31.007,27.702 32.201,27.613C38.149,27.187 44.037,26.897 50,27C50.495,27.99 50.495,27.99 51,29C39.78,29.99 28.56,30.98 17,32C22.915,36.242 22.915,36.242 29.062,39.812C33.649,42.259 38.179,44.788 42.688,47.375C43.312,47.733 43.937,48.091 44.58,48.46C46.054,49.306 47.527,50.153 49,51C47.608,46.645 46.213,42.351 44.312,38.188C43,35 43,35 43,31C45.25,30.625 45.25,30.625 48,31C50.411,33.776 51.697,36.057 52.82,39.555C53.691,42.26 54.493,44.585 56,47C58.358,48.115 60.291,48.474 62.879,48.719C65,49 65,49 68,51C68.536,50.649 69.073,50.299 69.625,49.938C72.733,48.711 74.794,49.271 78,50C75.473,54.802 75.473,54.802 72.949,55.859C70.769,56.835 70.769,56.835 70.348,59.242C70.207,60.545 70.207,60.545 70.062,61.875C69.453,65.68 69.285,66.708 66.5,69.562C62.32,71.966 59.91,72.409 55,72C51.296,69.973 49.346,68.52 47,65C46.586,62.738 46.586,62.738 46.375,60.312C46.3,59.504 46.225,58.696 46.148,57.863C46.099,57.248 46.05,56.634 46,56C45.016,55.898 45.016,55.898 44.012,55.793C39.817,54.688 36.497,52.558 32.812,50.312C32.059,49.864 31.305,49.415 30.528,48.952C27.266,47.004 24.036,45.023 20.84,42.969C19.985,42.422 19.131,41.876 18.25,41.312C17.533,40.834 16.817,40.356 16.078,39.863C13.347,38.729 11.792,39.163 9,40C8.01,40.495 8.01,40.495 7,41C2.043,41.374 -1.035,41.124 -5,38L-5,36L-7,36C-8.864,32.272 -8.565,28.058 -8,24C-6.622,21.287 -5.34,20.068 -3,18L0,18L0,0Z" style="fill:rgb(103,232,249);fill-rule:nonzero;"/>
    </g>
    <g transform="matrix(1,0,0,1,570.053467,290.870605)">
        <path d="M0,0C1.874,-0.005 1.874,-0.005 3.786,-0.01C5.156,-0.008 6.526,-0.006 7.896,-0.003C9.31,-0.004 10.725,-0.005 12.14,-0.006C15.115,-0.008 18.09,-0.006 21.065,-0.001C24.831,0.005 28.597,0.001 32.363,-0.005C35.293,-0.008 38.223,-0.007 41.153,-0.004C42.539,-0.004 43.924,-0.005 45.309,-0.007C55.229,-0.02 65.058,0.412 74.947,1.129C74.617,2.119 74.287,3.109 73.947,4.129C47.217,3.799 20.487,3.469 -7.053,3.129L-7.053,114.129C14.366,113.801 14.366,113.801 35.785,113.471C38.498,113.43 41.21,113.389 43.923,113.348C44.949,113.332 44.949,113.332 45.996,113.316C55.314,113.169 64.628,113.101 73.947,113.129C73.846,111.677 73.423,105.576 73.263,103.266C73.06,100.103 73.06,100.103 71.947,97.129L12.947,97.129C16.968,95.119 18.484,94.884 22.817,94.902C24.588,94.903 24.588,94.903 26.395,94.903C28.3,94.918 28.3,94.918 30.243,94.934C31.547,94.937 32.851,94.94 34.195,94.943C37.654,94.95 41.112,94.97 44.571,94.992C48.104,95.013 51.637,95.022 55.169,95.032C62.095,95.053 69.021,95.087 75.947,95.129C77.587,98.411 77.089,102.027 77.072,105.629C77.075,106.414 77.079,107.199 77.083,108.008C77.073,113.876 77.073,113.876 75.947,116.129C65.012,116.153 54.077,116.17 43.142,116.181C38.065,116.186 32.988,116.194 27.911,116.205C23.015,116.216 18.12,116.222 13.225,116.224C11.353,116.226 9.481,116.23 7.609,116.235C4.996,116.242 2.384,116.243 -0.229,116.243C-1.011,116.247 -1.793,116.25 -2.598,116.254C-7.939,116.243 -7.939,116.243 -9.053,115.129C-9.149,113.649 -9.175,112.165 -9.174,110.681C-9.175,109.721 -9.176,108.76 -9.178,107.77C-9.174,106.708 -9.171,105.646 -9.167,104.551C-9.167,103.439 -9.167,102.327 -9.167,101.181C-9.167,97.486 -9.159,93.79 -9.151,90.094C-9.149,87.54 -9.148,84.985 -9.147,82.431C-9.143,76.382 -9.136,70.333 -9.125,64.284C-9.114,57.399 -9.109,50.514 -9.104,43.629C-9.093,29.462 -9.076,15.296 -9.053,1.129C-5.798,0.044 -3.426,0.002 0,0Z" style="fill:rgb(103,232,249);fill-rule:nonzero;"/>
    </g>
    <g transform="matrix(1,0,0,1,688,331)">
        <path d="M0,0L1,0L1,55C5.103,54.988 9.206,54.977 13.434,54.965C16.697,54.958 19.96,54.953 23.223,54.948C26.673,54.943 30.122,54.936 33.572,54.925C37.526,54.912 41.48,54.907 45.434,54.902C47.296,54.895 47.296,54.895 49.196,54.887C50.337,54.887 51.478,54.887 52.654,54.886C53.664,54.884 54.675,54.882 55.716,54.88C58,55 58,55 59,56C59.099,57.403 59.131,58.812 59.133,60.219C59.134,61.068 59.135,61.918 59.137,62.793C59.133,63.686 59.129,64.58 59.125,65.5C59.129,66.393 59.133,67.287 59.137,68.207C59.135,69.057 59.134,69.906 59.133,70.781C59.132,71.566 59.131,72.35 59.129,73.158C59,75 59,75 58,76C55.536,76.095 53.099,76.126 50.635,76.114C49.864,76.114 49.093,76.114 48.299,76.114C45.74,76.113 43.18,76.105 40.621,76.098C38.851,76.096 37.082,76.094 35.312,76.093C30.644,76.09 25.977,76.08 21.31,76.069C16.551,76.058 11.792,76.054 7.033,76.049C-2.311,76.038 -11.656,76.021 -21,76L-21,74C-2.609,72.209 15.784,71.901 34.25,71.875C35.525,71.871 35.525,71.871 36.827,71.867C39.265,71.861 41.703,71.863 44.141,71.867C45.242,71.864 45.242,71.864 46.366,71.861C49.718,71.876 52.795,71.956 56,73C56.083,68.167 55.953,63.763 55,59L39,59L39,57C37.236,57.008 37.236,57.008 35.436,57.016C31.088,57.034 26.74,57.045 22.392,57.055C20.508,57.06 18.623,57.067 16.738,57.075C14.035,57.088 11.332,57.093 8.629,57.098C7.357,57.105 7.357,57.105 6.059,57.113C4.039,57.113 2.019,57.062 0,57C-1.6,55.4 -1.127,53.715 -1.129,51.5C-1.133,50.541 -1.136,49.583 -1.139,48.595C-1.137,47.551 -1.135,46.506 -1.133,45.43C-1.134,43.825 -1.134,43.825 -1.136,42.189C-1.136,39.917 -1.135,37.646 -1.13,35.374C-1.125,31.911 -1.13,28.448 -1.137,24.984C-1.136,22.779 -1.135,20.573 -1.133,18.367C-1.135,17.335 -1.137,16.302 -1.139,15.238C-1.122,10.05 -0.901,5.112 0,0Z" style="fill:rgb(103,232,249);fill-rule:nonzero;"/>
    </g>
    <g transform="matrix(1,0,0,1,341.1875,276.75)">
        <path d="M0,0C2.548,1.757 3.504,3.447 4.812,6.25C4.814,7.901 4.814,7.901 4.816,9.586C5.941,13.724 6.326,13.994 9.828,16.059C11.56,16.96 13.306,17.835 15.062,18.688C16.896,19.623 18.728,20.562 20.559,21.504C21.457,21.962 22.355,22.419 23.281,22.891C25.545,24.107 27.66,25.398 29.785,26.84C30.359,27.228 30.933,27.616 31.524,28.016C33.023,29.055 34.507,30.116 35.988,31.18C38.94,32.648 38.94,32.648 42.445,30.945C44.112,30.106 44.112,30.106 45.812,29.25C50.076,29.25 52.866,29.989 56.25,32.5C58.812,35.25 58.812,35.25 59.188,38.062C59.064,38.784 58.94,39.506 58.812,40.25C58.276,39.466 57.74,38.682 57.188,37.875C54.412,34.807 52.846,34.041 48.812,33.25C45.581,33.529 42.627,34.03 39.5,34.875C37.812,35.25 37.812,35.25 35.812,34.25C36.307,34.848 36.803,35.446 37.312,36.062C38.812,38.25 38.812,38.25 38.812,41.25C29.658,43.927 19.275,43.424 9.812,43.25L9.812,41.25C18.474,39.99 27.083,40.16 35.812,40.25C32.243,36.108 27.935,33.911 23.188,31.375C21.569,30.498 19.952,29.619 18.336,28.738C17.558,28.315 16.781,27.892 15.979,27.456C12.423,25.477 8.983,23.317 5.562,21.113C4.985,20.828 4.407,20.544 3.812,20.25C3.152,20.58 2.493,20.91 1.812,21.25C2.143,23.56 2.473,25.87 2.812,28.25C0.099,26.244 -0.227,25.077 -1,21.688C-1.062,20.553 -1.124,19.419 -1.188,18.25C-0.527,17.59 0.133,16.93 0.812,16.25C3.075,16.604 4.763,17.225 6.812,18.25L6.812,16.25C5.822,15.92 4.832,15.59 3.812,15.25C3.188,13.289 3.188,13.289 2.812,10.875C2.419,8.357 2.051,6.621 0.668,4.473C-2.149,2.617 -4.551,2.964 -7.875,3.062C-9.054,3.09 -10.234,3.117 -11.449,3.145C-12.353,3.179 -13.256,3.214 -14.188,3.25C-14.518,3.91 -14.848,4.57 -15.188,5.25C-15.062,3.438 -15.062,3.438 -14.188,1.25C-9.026,-2.231 -5.693,-1.952 0,0Z" style="fill:rgb(103,232,249);fill-rule:nonzero;"/>
    </g>
    <g transform="matrix(1,0,0,1,373,365)">
        <path d="M0,0C2.583,1.148 4.307,2.275 6.438,4.188C8.843,6.259 8.843,6.259 11.688,6C14.149,5.193 14.149,5.193 15.312,2.938C15.539,2.298 15.766,1.659 16,1L18,1C18.062,1.598 18.124,2.196 18.188,2.812C19.324,5.873 21.213,6.436 24,8C26.465,11.697 26.784,14.712 26,19C24.062,22 24.062,22 21,24C16.012,24.857 11.523,24.33 7,22C6.34,21.67 5.68,21.34 5,21L5,20C4.01,19.67 3.02,19.34 2,19L4,19C3.938,17.391 3.938,17.391 3.875,15.75C3.989,12.343 4.213,10.793 6,8C5.567,7.59 5.134,7.18 4.688,6.758C4.131,6.219 3.574,5.68 3,5.125C2.443,4.591 1.886,4.058 1.312,3.508C0,2 0,2 0,0Z" style="fill:rgb(103,232,249);fill-rule:nonzero;"/>
    </g>
    <g transform="matrix(1,0,0,1,989,292)">
        <path d="M0,0L23,0L23,115L22,115L22,2L2,2C2.005,4.718 2.01,7.435 2.016,10.236C2.033,19.288 2.044,28.34 2.052,37.393C2.057,42.873 2.064,48.353 2.075,53.833C2.086,59.137 2.092,64.441 2.095,69.744C2.097,71.752 2.1,73.76 2.106,75.768C2.139,88.548 1.814,101.245 1,114L0,114L0,0Z" style="fill:rgb(103,232,249);fill-rule:nonzero;"/>
    </g>
    <g transform="matrix(1,0,0,1,592.870117,385.772949)">
        <path d="M0,0C1.771,0 1.771,0 3.579,0C5.483,0.016 5.483,0.016 7.427,0.032C8.731,0.035 10.035,0.037 11.378,0.04C14.837,0.048 18.296,0.068 21.755,0.09C25.287,0.11 28.82,0.119 32.353,0.129C39.278,0.151 46.204,0.185 53.13,0.227C54.771,3.508 54.273,7.125 54.255,10.727C54.259,11.512 54.263,12.297 54.267,13.106C54.257,18.974 54.257,18.974 53.13,21.227L-30.87,21.227C-30.54,20.567 -30.21,19.907 -29.87,19.227C-21.376,19.095 -12.882,18.965 -4.388,18.836C-0.443,18.776 3.503,18.716 7.448,18.654C11.267,18.595 15.086,18.537 18.905,18.479C20.351,18.457 21.796,18.435 23.242,18.412C32.539,18.266 41.832,18.198 51.13,18.227C51.029,16.775 50.606,10.673 50.446,8.364C50.243,5.201 50.243,5.201 49.13,2.227L-9.87,2.227C-5.849,0.216 -4.332,-0.019 0,0Z" style="fill:rgb(103,232,249);fill-rule:nonzero;"/>
    </g>
    <g transform="matrix(1,0,0,1,322,313)">
        <path d="M0,0C1.539,2.969 2.746,5.866 4,9L15,9C14.67,9.66 14.34,10.32 14,11L8,11L8,13C8.66,13.33 9.32,13.66 10,14L7,14L7,16L5,16C4.67,14.68 4.34,13.36 4,12C4.021,12.742 4.041,13.485 4.062,14.25C4,17 4,17 3.344,18.906C2.87,21.792 3.814,22.874 5.438,25.25C5.911,25.956 6.384,26.663 6.871,27.391C7.43,28.187 7.43,28.187 8,29C6.094,28.648 6.094,28.648 4,28C2.962,26.357 1.964,24.688 1,23C-0.673,21.078 -0.673,21.078 -3,20L-10,20C-10.66,19.01 -11.32,18.02 -12,17C-12.66,18.98 -13.32,20.96 -14,23C-14.99,22.67 -15.98,22.34 -17,22C-16.649,21.443 -16.299,20.886 -15.938,20.312C-14.782,17.461 -15.19,15.915 -16,13L-15,13C-14.867,12.078 -14.867,12.078 -14.73,11.137C-14.121,8.388 -13.514,6.388 -12,4C-8.434,2.321 -4.856,1.703 -1,1C-0.67,0.67 -0.34,0.34 0,0Z" style="fill:rgb(103,232,249);fill-rule:nonzero;"/>
    </g>
    <g transform="matrix(1,0,0,1,370,325)">
        <path d="M0,0C0.33,0.99 0.66,1.98 1,3C1.99,3.33 2.98,3.66 4,4C2.644,8.068 0.052,8.863 -3.562,10.688C-4.178,11.008 -4.794,11.328 -5.428,11.658C-6.947,12.447 -8.473,13.225 -10,14C-9.675,14.933 -9.35,15.867 -9.016,16.828C-8.054,19.831 -7.654,21.886 -8,25C-10,27 -10,27 -11.93,27.102C-15.336,25.289 -15.956,21.844 -17.125,18.375C-17.376,17.675 -17.628,16.975 -17.887,16.254C-19.436,11.882 -20.768,7.471 -22,3C-20.68,2.34 -19.36,1.68 -18,1C-14.989,3.007 -14.37,3.839 -13,7C-11.395,6.211 -9.791,5.419 -8.188,4.625C-7.294,4.184 -6.401,3.743 -5.48,3.289C-2.854,1.981 -2.854,1.981 0,0Z" style="fill:rgb(103,232,249);fill-rule:nonzero;"/>
    </g>
    <g transform="matrix(1,0,0,1,952,358)">
        <path d="M0,0L2,0C2.241,0.538 2.482,1.076 2.731,1.63C8.414,14.304 8.414,14.304 14.188,26.938C14.876,28.432 14.876,28.432 15.578,29.957C16.613,32.171 17.668,34.376 18.734,36.574C19.296,37.746 19.858,38.918 20.438,40.125C20.952,41.179 21.466,42.234 21.996,43.32C23,46 23,46 22,49C18.229,49.116 14.459,49.187 10.688,49.25C9.616,49.284 8.544,49.317 7.439,49.352C5.897,49.371 5.897,49.371 4.324,49.391C3.376,49.412 2.428,49.433 1.452,49.454C-1,49 -1,49 -2.702,47.285C-4.048,44.915 -5.103,42.593 -6.086,40.051C-6.46,39.121 -6.834,38.191 -7.219,37.232C-7.993,35.278 -8.756,33.32 -9.508,31.357C-9.884,30.431 -10.261,29.505 -10.648,28.551C-10.98,27.702 -11.312,26.853 -11.654,25.978C-12.877,23.733 -12.877,23.733 -15.647,23.216C-16.423,23.144 -17.2,23.073 -18,23L-18,22L-11,22C-9.995,23.956 -8.996,25.915 -8,27.875C-7.443,28.966 -6.886,30.056 -6.312,31.18C-5,34 -5,34 -5,36C-4.34,36.33 -3.68,36.66 -3,37C-2.283,38.982 -1.617,40.984 -1,43C-0.67,43.66 -0.34,44.32 0,45L19,45C15.54,37.021 12.069,29.06 8.375,21.188C8.087,20.572 7.798,19.957 7.501,19.323C6.156,16.454 4.805,13.587 3.449,10.723C2.992,9.742 2.534,8.761 2.062,7.75C1.662,6.899 1.261,6.048 0.848,5.172C0,3 0,3 0,0Z" style="fill:rgb(103,232,249);fill-rule:nonzero;"/>
    </g>
    <g transform="matrix(1,0,0,1,584,338)">
        <path d="M0,0C7.53,-0.025 15.059,-0.043 22.589,-0.055C25.153,-0.06 27.717,-0.067 30.281,-0.075C33.957,-0.088 37.633,-0.093 41.309,-0.098C42.463,-0.103 43.617,-0.108 44.806,-0.113C46.398,-0.113 46.398,-0.113 48.021,-0.114C48.961,-0.116 49.9,-0.118 50.868,-0.12C53,0 53,0 54,1L54,20L0,20C-0.33,19.34 -0.66,18.68 -1,18L52,18L52,2L-1,2C-0.67,1.34 -0.34,0.68 0,0Z" style="fill:rgb(103,232,249);fill-rule:nonzero;"/>
    </g>
    <g transform="matrix(1,0,0,1,271,310)">
        <path d="M0,0C0.99,0.33 1.98,0.66 3,1C2.51,1.402 2.02,1.804 1.516,2.219C-0.4,4.47 -0.347,5.587 -0.25,8.5C-0.235,9.273 -0.219,10.047 -0.203,10.844C-0.065,13.182 -0.065,13.182 1,16C1.825,16.33 5.15,17.66 6,18C6.33,18.99 6.66,19.98 7,21L9,21L9,19L11,19C12.09,30.153 12.353,40.864 11,52L10,52C9.34,53.98 8.68,55.96 8,58L7,58L7,41L5,41C5.001,40.385 5.002,39.77 5.003,39.136C4.991,36.339 4.934,33.546 4.875,30.75C4.879,29.298 4.879,29.298 4.883,27.816C4.807,25.084 4.677,22.65 4,20C1.174,17.377 1.174,17.377 -2,16C-3.22,13.56 -3.202,11.847 -3.25,9.125C-3.276,8.261 -3.302,7.398 -3.328,6.508C-2.941,3.55 -1.951,2.208 0,0Z" style="fill:rgb(103,232,249);fill-rule:nonzero;"/>
    </g>
    <g transform="matrix(1,0,0,1,500,364)">
        <path d="M0,0L1,0C1.167,5.963 1.328,11.926 1.482,17.889C1.536,19.92 1.591,21.95 1.648,23.98C1.73,26.892 1.805,29.803 1.879,32.715C1.906,33.628 1.933,34.542 1.961,35.483C2.013,37.655 2.012,39.828 2,42C1,43 1,43 -1.133,43.114C-2.508,43.106 -2.508,43.106 -3.91,43.098C-4.9,43.094 -5.889,43.091 -6.908,43.088C-7.949,43.08 -8.99,43.071 -10.062,43.062C-11.107,43.058 -12.152,43.053 -13.229,43.049C-15.819,43.037 -18.41,43.021 -21,43C-23.174,38.651 -22.185,32.776 -22.188,28C-22.2,26.786 -22.212,25.571 -22.225,24.32C-22.227,23.163 -22.228,22.005 -22.23,20.812C-22.235,19.746 -22.239,18.68 -22.243,17.582C-22,15 -22,15 -20,13C-18.643,15.714 -18.888,17.848 -18.902,20.883C-18.906,22.049 -18.909,23.216 -18.912,24.418C-18.92,25.641 -18.929,26.865 -18.938,28.125C-18.942,29.356 -18.947,30.587 -18.951,31.855C-18.963,34.904 -18.979,37.952 -19,41C-17.967,40.836 -16.935,40.673 -15.871,40.504C-12.531,40.069 -9.422,39.896 -6.062,39.938C-5.105,39.947 -4.147,39.956 -3.16,39.965C-2.091,39.982 -2.091,39.982 -1,40C-1.012,39.207 -1.023,38.414 -1.035,37.598C-1.132,25.05 -0.559,12.534 0,0Z" style="fill:rgb(103,232,249);fill-rule:nonzero;"/>
    </g>
    <g transform="matrix(1,0,0,1,1010,305)">
        <path d="M0,0L1,0L1,102L-20,102L-20,82L-19,82L-19,99L0,99L0,0Z" style="fill:rgb(103,232,249);fill-rule:nonzero;"/>
    </g>
    <g transform="matrix(1,0,0,1,359,365)">
        <path d="M0,0C2.372,4.745 3.457,7.519 3,13C0.973,16.704 -0.48,18.654 -4,21C-7.087,21.622 -9.913,21.623 -13,21C-14.793,19.656 -14.793,19.656 -16.438,18C-18.603,15.825 -19.576,15.064 -22.656,14.602C-25.13,14.622 -27.542,14.733 -30,15L-30,13L-32,13L-32,11C-37.28,10.67 -42.56,10.34 -48,10L-48,9C-36.12,8.01 -36.12,8.01 -24,7L-24,9C-23.395,9.093 -22.791,9.186 -22.168,9.281C-19.48,10.172 -18.887,11.192 -17.312,13.5C-14.88,16.502 -13.216,17.601 -9.375,18.188C-6.363,18.274 -5.191,18.105 -2.5,16.625C0.374,11.596 0.387,6.5 -1,1C-0.67,0.67 -0.34,0.34 0,0Z" style="fill:rgb(103,232,249);fill-rule:nonzero;"/>
    </g>
    <g transform="matrix(1,0,0,1,305,336)">
        <path d="M0,0C0.66,0.33 1.32,0.66 2,1C-1.96,6.94 -1.96,6.94 -6,13C-5.67,13.66 -5.34,14.32 -5,15C-4.374,14.001 -3.747,13.002 -3.102,11.973C-2.276,10.669 -1.451,9.366 -0.625,8.062C-0.212,7.403 0.2,6.744 0.625,6.064C3.773,1.113 3.773,1.113 6,0C4.942,5.728 1.162,10.233 -2,15C-2.763,16.191 -3.526,17.383 -4.289,18.574C-5.066,19.759 -5.845,20.942 -6.625,22.125C-7.339,23.221 -8.053,24.316 -8.789,25.445C-11.296,28.342 -12.305,28.605 -16,29C-16.99,29.66 -17.98,30.32 -19,31C-17.901,24.818 -14.93,20.88 -11.168,15.926C-8.372,12.152 -5.91,8.21 -3.445,4.215C-2,2 -2,2 0,0Z" style="fill:rgb(103,232,249);fill-rule:nonzero;"/>
    </g>
    <g transform="matrix(1,0,0,1,577,291)">
        <path d="M0,0C7.113,-0.026 14.225,-0.043 21.338,-0.055C23.751,-0.06 26.163,-0.067 28.576,-0.075C41.757,-0.122 54.859,-0.116 68,1C67.67,1.99 67.34,2.98 67,4C59.15,3.892 51.3,3.78 43.451,3.661C39.805,3.606 36.16,3.552 32.515,3.503C28.994,3.455 25.473,3.402 21.952,3.347C19.962,3.317 17.971,3.291 15.98,3.266C14.759,3.246 13.539,3.226 12.281,3.205C11.21,3.19 10.14,3.174 9.037,3.158C5.959,2.998 3.027,2.566 0,2L0,0Z" style="fill:rgb(103,232,249);fill-rule:nonzero;"/>
    </g>
    <g transform="matrix(1,0,0,1,643,294)">
        <path d="M0,0C0.66,0.33 1.32,0.66 2,1L2,18L-59,18C-59.33,17.34 -59.66,16.68 -60,16L0,16L0,0Z" style="fill:rgb(103,232,249);fill-rule:nonzero;"/>
    </g>
    <g transform="matrix(1,0,0,1,323,307)">
        <path d="M0,0C0.33,0.66 0.66,1.32 1,2C2.32,1.67 3.64,1.34 5,1C4.414,2.986 3.828,4.971 3.242,6.957C2.739,9.311 2.739,9.311 5,12C7.029,12.415 7.029,12.415 9.352,12.293C10.202,12.283 11.053,12.274 11.93,12.264C12.819,12.239 13.709,12.213 14.625,12.188C15.522,12.174 16.419,12.16 17.344,12.146C19.563,12.111 21.781,12.062 24,12L24,14C13.605,14.495 13.605,14.495 3,15C1.68,12.36 0.36,9.72 -1,7C-1.681,7.289 -2.361,7.577 -3.062,7.875C-6.329,9.126 -9.628,10.074 -13,11C-13.66,14.63 -14.32,18.26 -15,22C-17.361,18.459 -17.573,17.172 -17,13C-13.637,7.535 -13.637,7.535 -10.027,6.355C-8.645,6.079 -7.259,5.816 -5.871,5.566C-2.867,4.657 -1.618,2.562 0,0Z" style="fill:rgb(103,232,249);fill-rule:nonzero;"/>
    </g>
    <g transform="matrix(1,0,0,1,894,352)">
        <path d="M0,0L1,0C0.125,7.875 0.125,7.875 -1,9C17.81,9.495 17.81,9.495 37,10C36.01,8.02 35.02,6.04 34,4C34.33,3.01 34.66,2.02 35,1C37.062,3.688 37.062,3.688 39,7C38.67,8.65 38.34,10.3 38,12L-4,12C-3.167,7.001 -2.345,4.282 0,0Z" style="fill:rgb(103,232,249);fill-rule:nonzero;"/>
    </g>
    <g transform="matrix(1,0,0,1,886,323)">
        <path d="M0,0C1,2 1,2 0.504,3.969C-2.08,10.916 -5.02,17.671 -8.065,24.425C-9.911,28.521 -11.688,32.621 -13.312,36.812C-14.597,40.088 -15.904,43.142 -18,46L-20,46C-19.35,41.858 -17.989,38.406 -16.27,34.59C-15.997,33.982 -15.724,33.374 -15.443,32.747C-14.864,31.461 -14.283,30.176 -13.7,28.892C-12.827,26.97 -11.963,25.045 -11.1,23.119C-7.586,15.313 -3.896,7.624 0,0Z" style="fill:rgb(103,232,249);fill-rule:nonzero;"/>
    </g>
    <g transform="matrix(1,0,0,1,879,384)">
        <path d="M0,0L3,0C1.267,5.381 -0.588,10.703 -2.562,16C-2.976,17.114 -3.39,18.227 -3.816,19.375C-5,22 -5,22 -7,23C-8.667,23.084 -10.338,23.107 -12.008,23.098C-12.994,23.094 -13.98,23.091 -14.996,23.088C-16.029,23.08 -17.061,23.071 -18.125,23.062C-19.685,23.056 -19.685,23.056 -21.277,23.049C-23.852,23.037 -26.426,23.021 -29,23C-29.33,21.68 -29.66,20.36 -30,19C-29.01,19.33 -28.02,19.66 -27,20C-24.136,20.097 -21.301,20.139 -18.438,20.125C-17.267,20.131 -17.267,20.131 -16.072,20.137C-11.903,20.235 -11.903,20.235 -8,19C-6.734,16.767 -5.567,14.551 -4.438,12.25C-4.121,11.629 -3.805,11.007 -3.479,10.367C-1.774,6.937 -0.53,3.801 0,0Z" style="fill:rgb(103,232,249);fill-rule:nonzero;"/>
    </g>
    <g transform="matrix(1,0,0,1,372,343)">
        <path d="M0,0C0.66,0.33 1.32,0.66 2,1C1.539,5.922 -0.804,10.277 -4,14L-7,14C-7.474,14.495 -7.949,14.99 -8.438,15.5C-10,17 -10,17 -14,17C-12.699,13.517 -11.199,10.439 -9.188,7.312C-8.707,6.546 -8.226,5.779 -7.73,4.988C-5.682,2.635 -3.924,1.981 -1,1C-0.67,0.67 -0.34,0.34 0,0Z" style="fill:rgb(103,232,249);fill-rule:nonzero;"/>
    </g>
    <g transform="matrix(1,0,0,1,810,330)">
        <path d="M0,0C10.189,0.209 16.762,2.773 24.25,9.688C29.484,15.214 33.622,22.249 34,30C33.505,31.485 33.505,31.485 33,33L31,33C30.902,32.287 30.804,31.574 30.703,30.84C29.187,21.127 25.939,14.141 18,8C12.237,4.707 6.64,2.443 0,2L0,0Z" style="fill:rgb(103,232,249);fill-rule:nonzero;"/>
    </g>
    <g transform="matrix(1,0,0,1,898.675781,379.121094)">
        <path d="M0,0C0.925,0.024 1.85,0.047 2.804,0.072C5.748,0.148 8.692,0.232 11.637,0.316C13.637,0.37 15.638,0.422 17.639,0.475C22.534,0.603 27.429,0.739 32.324,0.879C31.994,1.539 31.664,2.199 31.324,2.879L-14.676,2.879L-14.676,0.879C-9.781,-0.432 -5.015,-0.152 0,0Z" style="fill:rgb(103,232,249);fill-rule:nonzero;"/>
    </g>
    <g transform="matrix(1,0,0,1,840,381)">
        <path d="M0,0C0.66,0.33 1.32,0.66 2,1C-0.671,6.853 -3.036,11.745 -8,16C-8.513,16.491 -9.026,16.982 -9.555,17.488C-17.143,24.534 -24.78,26.618 -35,27C-34,25 -34,25 -31.34,24.07C-30.217,23.758 -29.094,23.446 -27.938,23.125C-13.927,18.945 -7.068,12.867 0,0Z" style="fill:rgb(103,232,249);fill-rule:nonzero;"/>
    </g>
    <g transform="matrix(1,0,0,1,302,389)">
        <path d="M0,0C6.93,3.96 6.93,3.96 14,8C13.34,9.32 12.68,10.64 12,12C5.02,11.69 -0.073,8.505 -6,5C-2.25,3 -2.25,3 0,3L0,0Z" style="fill:rgb(103,232,249);fill-rule:nonzero;"/>
    </g>
    <g transform="matrix(1,0,0,1,540,300)">
        <path d="M0,0C0.66,0.33 1.32,0.66 2,1C1.169,2.344 0.339,3.688 -0.492,5.031C-1.028,5.898 -1.564,6.764 -2.116,7.657C-3.294,9.561 -4.473,11.464 -5.654,13.366C-8.451,17.873 -11.239,22.384 -13.984,26.922C-14.433,27.657 -14.882,28.393 -15.344,29.15C-16.183,30.525 -17.015,31.904 -17.839,33.287C-20.662,37.887 -20.662,37.887 -24,39C-22.672,35.452 -21.097,32.296 -19.125,29.062C-18.598,28.196 -18.071,27.33 -17.527,26.438C-16.282,24.451 -15.009,22.499 -13.688,20.562C-11.872,18.045 -11.872,18.045 -11,15L-9,15C-8.732,13.907 -8.464,12.814 -8.188,11.688C-7.064,8.2 -6.594,7.27 -4,5C-3.474,3.948 -3.474,3.948 -2.938,2.875C-2,1 -2,1 0,0Z" style="fill:rgb(103,232,249);fill-rule:nonzero;"/>
    </g>
    <g transform="matrix(1,0,0,1,434,292)">
        <path d="M0,0C4.125,-0.087 8.25,-0.14 12.375,-0.188C13.551,-0.213 14.726,-0.238 15.938,-0.264C17.62,-0.278 17.62,-0.278 19.336,-0.293C20.373,-0.309 21.41,-0.324 22.478,-0.341C23.31,-0.228 24.143,-0.116 25,0C25.66,0.99 26.32,1.98 27,3C19.74,2.67 12.48,2.34 5,2C7.345,9.575 7.345,9.575 11,15C10.67,15.99 10.34,16.98 10,18C8.894,16.439 7.79,14.876 6.688,13.312C6.073,12.442 5.458,11.572 4.824,10.676C0,3.6 0,3.6 0,0Z" style="fill:rgb(103,232,249);fill-rule:nonzero;"/>
    </g>
    <g transform="matrix(1,0,0,1,391,336)">
        <path d="M0,0L1,0L1,18L-1,18L-1,20C-1.99,19.67 -2.98,19.34 -4,19C-5.424,16.152 -5.17,13.672 -5.188,10.5C-5.209,8.752 -5.209,8.752 -5.23,6.969C-5,4 -5,4 -3,2C-2.67,2.66 -2.34,3.32 -2,4L0,4L0,0Z" style="fill:rgb(103,232,249);fill-rule:nonzero;"/>
    </g>
    <g transform="matrix(1,0,0,1,324,394)">
        <path d="M0,0C2,1.625 2,1.625 4,4C4.25,7.25 4.25,7.25 4,10C1.924,10.553 0.156,11 -2,11C-1.01,12.485 -1.01,12.485 0,14C-5.179,12.757 -8.702,11.145 -13,8C-11.35,6.35 -9.7,4.7 -8,3C-5.03,4.65 -2.06,6.3 1,8C0.67,5.36 0.34,2.72 0,0Z" style="fill:rgb(103,232,249);fill-rule:nonzero;"/>
    </g>
    <g transform="matrix(1,0,0,1,370,325)">
        <path d="M0,0C0.33,0.99 0.66,1.98 1,3C1.99,3.33 2.98,3.66 4,4C2.788,7.635 1.892,7.952 -1.375,9.75C-2.166,10.199 -2.958,10.647 -3.773,11.109C-6,12 -6,12 -9,11C-8.67,10.01 -8.34,9.02 -8,8C-8.99,8.66 -9.98,9.32 -11,10C-13.188,9.625 -13.188,9.625 -15,9L-12,9C-11.67,8.01 -11.34,7.02 -11,6C-8.496,4.395 -8.496,4.395 -5.438,2.812C-4.426,2.283 -3.414,1.753 -2.371,1.207C-1.589,0.809 -0.806,0.41 0,0Z" style="fill:rgb(103,232,249);fill-rule:nonzero;"/>
    </g>
    <g transform="matrix(1,0,0,1,284,329)">
        <path d="M0,0C2.884,1.293 4.872,2.659 7,5C7.33,4.34 7.66,3.68 8,3C12.094,4.365 13.042,6.229 15,10C14.25,12.875 14.25,12.875 13,15C9.697,14.75 8.895,13.882 6.641,11.348C5.833,10.261 5.036,9.165 4.25,8.062C3.839,7.511 3.428,6.96 3.004,6.393C0,2.286 0,2.286 0,0Z" style="fill:rgb(103,232,249);fill-rule:nonzero;"/>
    </g>
    <g transform="matrix(1,0,0,1,479,377)">
        <path d="M0,0C2,2 2,2 2.227,4.706C2.217,5.826 2.206,6.947 2.195,8.102C2.189,9.313 2.182,10.525 2.176,11.773C2.159,13.044 2.142,14.315 2.125,15.625C2.116,16.904 2.107,18.183 2.098,19.5C2.074,22.667 2.041,25.833 2,29C1.34,29.33 0.68,29.66 0,30C-1.346,27.307 -1.13,25.199 -1.133,22.188C-1.134,21.03 -1.135,19.872 -1.137,18.68C-1.133,17.465 -1.129,16.251 -1.125,15C-1.129,13.786 -1.133,12.571 -1.137,11.32C-1.135,10.163 -1.134,9.005 -1.133,7.812C-1.132,6.746 -1.131,5.68 -1.129,4.582C-1,2 -1,2 0,0Z" style="fill:rgb(103,232,249);fill-rule:nonzero;"/>
    </g>
    <g transform="matrix(1,0,0,1,534.3125,291.5625)">
        <path d="M0,0C1.122,0.032 2.244,0.063 3.4,0.096C6.165,0.178 8.925,0.293 11.688,0.438L11.688,3.438C0.302,2.942 0.302,2.942 -11.312,2.438C-12.5,4.813 -13.658,7.204 -14.75,9.625C-16.312,12.438 -16.312,12.438 -19.312,13.438C-16.15,1.652 -11.966,-0.636 0,0Z" style="fill:rgb(103,232,249);fill-rule:nonzero;"/>
    </g>
    <g transform="matrix(1,0,0,1,970,398)">
        <path d="M0,0C2.757,2.49 4.607,4.205 5,8C4,9 4,9 2.142,9.114C1.352,9.108 0.561,9.103 -0.254,9.098C-1.108,9.094 -1.962,9.091 -2.842,9.088C-3.74,9.08 -4.637,9.071 -5.562,9.062C-6.464,9.058 -7.366,9.053 -8.295,9.049C-10.53,9.037 -12.765,9.021 -15,9L-15,6C-11.326,5.147 -7.955,4.892 -4.188,4.938C-3.212,4.947 -2.236,4.956 -1.23,4.965C-0.494,4.976 0.242,4.988 1,5C0.67,3.35 0.34,1.7 0,0Z" style="fill:rgb(103,232,249);fill-rule:nonzero;"/>
    </g>
    <g transform="matrix(1,0,0,1,577,291)">
        <path d="M0,0L31,0L31,2C25.794,3.065 20.787,3.15 15.5,3.125C14.671,3.129 13.842,3.133 12.988,3.137C8.545,3.13 4.373,2.894 0,2L0,0Z" style="fill:rgb(103,232,249);fill-rule:nonzero;"/>
    </g>
    <g transform="matrix(1,0,0,1,793,344)">
        <path d="M0,0C9.54,0.025 17.542,0.296 25,7C26.262,9.199 26.262,9.199 27,11L24,11C22.333,9.333 20.667,7.667 19,6C14.943,3.932 11.2,3.628 6.688,3.375C4.806,3.263 4.806,3.263 2.887,3.148C1.934,3.099 0.981,3.05 0,3L0,0Z" style="fill:rgb(103,232,249);fill-rule:nonzero;"/>
    </g>
    <g transform="matrix(1,0,0,1,378,383)">
        <path d="M0,0C2,2 2,2 2,3C5.967,4.803 9.682,5.492 14,6C13.67,6.99 13.34,7.98 13,9C6.557,8.242 6.557,8.242 3.625,6.969C0.636,5.866 -1.64,5.799 -4.812,5.875C-5.788,5.893 -6.764,5.911 -7.77,5.93C-8.506,5.953 -9.242,5.976 -10,6C-5.692,2.062 -5.692,2.062 -2.188,1.75C-1.466,1.833 -0.744,1.915 0,2L0,0Z" style="fill:rgb(103,232,249);fill-rule:nonzero;"/>
    </g>
    <g transform="matrix(1,0,0,1,357,394)">
        <path d="M0,0C0.33,1.32 0.66,2.64 1,4L5,4L5,6C3.545,6.838 2.086,7.671 0.625,8.5C-0.187,8.964 -0.999,9.428 -1.836,9.906C-4,11 -4,11 -6,11C-5.67,10.01 -5.34,9.02 -5,8C-6.32,7.34 -7.64,6.68 -9,6C-6.03,4.02 -3.06,2.04 0,0Z" style="fill:rgb(103,232,249);fill-rule:nonzero;"/>
    </g>
    <g transform="matrix(1,0,0,1,311,300)">
        <path d="M0,0C-1.141,3.422 -1.567,3.668 -4.625,5.25C-8.881,7.278 -11.485,7.129 -16,6C-10.339,1.282 -7.492,-0.288 0,0Z" style="fill:rgb(103,232,249);fill-rule:nonzero;"/>
    </g>
    <g transform="matrix(1,0,0,1,365.6875,392.375)">
        <path d="M0,0C0.808,0.111 1.616,0.222 2.449,0.336C3.372,0.479 3.372,0.479 4.312,0.625C3.322,1.12 3.322,1.12 2.312,1.625C1.982,2.615 1.653,3.605 1.312,4.625C-1.921,6.242 -5.138,7.016 -8.688,7.625C-8.375,4.75 -8.375,4.75 -7.688,1.625C-4.334,-0.611 -3.78,-0.548 0,0Z" style="fill:rgb(103,232,249);fill-rule:nonzero;"/>
    </g>
    <g transform="matrix(1,0,0,1,290,313)">
        <path d="M0,0C1.32,0.33 2.64,0.66 4,1C3.01,1.495 3.01,1.495 2,2C1.531,3.989 1.531,3.989 1.375,6.312C1.3,7.092 1.225,7.872 1.148,8.676C0.885,12.795 0.956,15.423 3,19C0.532,17.848 -1.048,16.952 -3,15C-3.047,12.285 -3.047,12.285 -2.75,9.062C-2.662,8.002 -2.575,6.941 -2.484,5.848C-2,3 -2,3 0,0Z" style="fill:rgb(103,232,249);fill-rule:nonzero;"/>
    </g>
    <g transform="matrix(1,0,0,1,900,292)">
        <path d="M0,0C2.43,-0.341 2.43,-0.341 5.445,-0.293C6.522,-0.283 7.598,-0.274 8.707,-0.264C10.399,-0.226 10.399,-0.226 12.125,-0.188C13.261,-0.174 14.396,-0.16 15.566,-0.146C18.378,-0.111 21.189,-0.062 24,0L24,2C20.229,2.168 16.458,2.334 12.688,2.5C11.616,2.548 10.544,2.595 9.439,2.645C7.897,2.712 7.897,2.712 6.324,2.781C4.902,2.844 4.902,2.844 3.452,2.908C1.636,2.976 -0.182,3 -2,3C-1.34,2.01 -0.68,1.02 0,0Z" style="fill:rgb(103,232,249);fill-rule:nonzero;"/>
    </g>
    <g transform="matrix(1,0,0,1,822,364)">
        <path d="M0,0L1,0C2.077,5.801 2.885,10.479 -0.312,15.688C-1.676,17.637 -1.676,17.637 -3,19L-5,19C-5.33,20.32 -5.66,21.64 -6,23L-12,23C-11.258,22.484 -10.515,21.969 -9.75,21.438C-5.779,17.918 -3.688,14.064 -2,9L0,9L0,0Z" style="fill:rgb(103,232,249);fill-rule:nonzero;"/>
    </g>
    <g transform="matrix(1,0,0,1,359,365)">
        <path d="M0,0C2.372,4.745 3.457,7.519 3,13C-0.077,18.538 -0.077,18.538 -3,20C-4.54,20.07 -6.083,20.085 -7.625,20.062C-8.851,20.049 -8.851,20.049 -10.102,20.035C-10.728,20.024 -11.355,20.012 -12,20L-12,19C-11.385,18.925 -10.77,18.85 -10.137,18.773C-4.733,17.964 -4.733,17.964 -0.938,14.25C0.449,9.445 0.237,5.773 -1,1C-0.67,0.67 -0.34,0.34 0,0Z" style="fill:rgb(103,232,249);fill-rule:nonzero;"/>
    </g>
    <g transform="matrix(1,0,0,1,675.328125,291.804688)">
        <path d="M0,0C0.799,0.006 1.598,0.013 2.422,0.02C3.247,0.036 4.072,0.053 4.922,0.07C5.762,0.079 6.603,0.088 7.469,0.098C9.537,0.121 11.604,0.157 13.672,0.195C14.606,3.206 14.716,4.062 13.672,7.195L11.672,7.195L11.672,2.195L-8.328,2.195C-4.703,0.383 -3.733,-0.053 0,0Z" style="fill:rgb(103,232,249);fill-rule:nonzero;"/>
    </g>
    <g transform="matrix(1,0,0,1,468,348)">
        <path d="M0,0L2,0C5.921,4.78 9.748,10.229 12,16C11.67,16.99 11.34,17.98 11,19C8.031,15.446 5.577,11.815 3.25,7.812C2.636,6.767 2.023,5.722 1.391,4.645C0,2 0,2 0,0Z" style="fill:rgb(103,232,249);fill-rule:nonzero;"/>
    </g>
    <g transform="matrix(1,0,0,1,929,307)">
        <path d="M0,0L2,0C3.152,2.56 4.297,5.123 5.438,7.688C5.926,8.769 5.926,8.769 6.424,9.873C8.059,13.565 9.435,16.965 10,21C6.424,17.851 4.719,14.717 2.812,10.375C2.303,9.228 1.794,8.08 1.27,6.898C0.851,5.942 0.432,4.985 0,4C-0.33,3.34 -0.66,2.68 -1,2C-0.67,1.34 -0.34,0.68 0,0Z" style="fill:rgb(103,232,249);fill-rule:nonzero;"/>
    </g>
    <g transform="matrix(1,0,0,1,500,364)">
        <path d="M0,0L1,0C1.33,13.86 1.66,27.72 2,42C0.515,42.495 0.515,42.495 -1,43C-0.67,28.81 -0.34,14.62 0,0Z" style="fill:rgb(103,232,249);fill-rule:nonzero;"/>
    </g>
    <g transform="matrix(1,0,0,1,849,403)">
        <path d="M0,0C0.99,0.33 1.98,0.66 3,1C4.48,1.146 5.964,1.247 7.449,1.316C8.297,1.358 9.144,1.4 10.018,1.443C10.899,1.483 11.78,1.522 12.688,1.562C13.58,1.606 14.473,1.649 15.393,1.693C17.595,1.799 19.797,1.901 22,2C22.33,2.66 22.66,3.32 23,4L1,4C0.67,2.68 0.34,1.36 0,0Z" style="fill:rgb(103,232,249);fill-rule:nonzero;"/>
    </g>
    <g transform="matrix(1,0,0,1,365,356)">
        <path d="M0,0C0.66,0.66 1.32,1.32 2,2C-0.97,6.455 -0.97,6.455 -4,11C-4.99,10.34 -5.98,9.68 -7,9C-7.99,8.67 -8.98,8.34 -10,8C-9.375,6.062 -9.375,6.062 -8,4C-6.007,3.626 -4.006,3.293 -2,3C-1.34,2.01 -0.68,1.02 0,0Z" style="fill:rgb(103,232,249);fill-rule:nonzero;"/>
    </g>
    <g transform="matrix(1,0,0,1,570.625,290.9375)">
        <path d="M0,0C1.189,0.009 2.377,0.018 3.602,0.027C4.517,0.039 5.432,0.051 6.375,0.062L6.375,2.062L12.375,2.062L12.375,3.062L-7.625,3.062L-7.625,12.062L-8.625,12.062L-8.625,1.062C-5.741,-0.38 -3.208,-0.031 0,0Z" style="fill:rgb(103,232,249);fill-rule:nonzero;"/>
    </g>
    <g transform="matrix(1,0,0,1,760,384)">
        <path d="M0,0C3.61,1.203 3.989,2.154 5.938,5.312C8.041,8.618 10.168,11.277 13,14L13,16C9.64,14.571 7.723,12.839 5.375,10.062C4.489,9.028 4.489,9.028 3.586,7.973C0,3.512 0,3.512 0,0Z" style="fill:rgb(103,232,249);fill-rule:nonzero;"/>
    </g>
    <g transform="matrix(1,0,0,1,304,351)">
        <path d="M0,0C2.438,0.188 2.438,0.188 5,1C6.375,2.875 6.375,2.875 7,5C6.67,5.99 6.34,6.98 6,8C5.01,7.34 4.02,6.68 3,6L3,8C2.01,7.67 1.02,7.34 0,7C-0.381,5.009 -0.713,3.007 -1,1C-0.67,0.67 -0.34,0.34 0,0Z" style="fill:rgb(103,232,249);fill-rule:nonzero;"/>
    </g>
    <g transform="matrix(1,0,0,1,804.324219,291.121094)">
        <path d="M0,0C1.028,0.048 2.056,0.097 3.115,0.146C4.723,0.231 4.723,0.231 6.363,0.316C7.447,0.369 8.53,0.421 9.646,0.475C12.323,0.604 15,0.739 17.676,0.879C17.346,1.539 17.016,2.199 16.676,2.879L-9.324,2.879C-7.406,-0.958 -3.769,-0.187 0,0Z" style="fill:rgb(103,232,249);fill-rule:nonzero;"/>
    </g>
    <g transform="matrix(1,0,0,1,325,312)">
        <path d="M0,0C0.124,0.598 0.247,1.196 0.375,1.812C0.955,4.262 0.955,4.262 3,7C5.029,7.415 5.029,7.415 7.352,7.293C8.628,7.278 8.628,7.278 9.93,7.264C10.819,7.239 11.709,7.213 12.625,7.188C13.971,7.167 13.971,7.167 15.344,7.146C17.563,7.111 19.781,7.062 22,7L22,9C18.543,9.254 15.085,9.474 11.625,9.688C10.64,9.76 9.655,9.833 8.641,9.908C7.229,9.99 7.229,9.99 5.789,10.074C4.485,10.161 4.485,10.161 3.155,10.249C2.444,10.167 1.733,10.085 1,10C-1.567,6.15 -0.833,4.414 0,0Z" style="fill:rgb(103,232,249);fill-rule:nonzero;"/>
    </g>
    <g transform="matrix(1,0,0,1,439,292)">
        <path d="M0,0C3.292,-0.087 6.583,-0.14 9.875,-0.188C10.812,-0.213 11.749,-0.238 12.715,-0.264C14.059,-0.278 14.059,-0.278 15.43,-0.293C16.257,-0.309 17.085,-0.324 17.937,-0.341C18.618,-0.228 19.299,-0.116 20,0C20.66,0.99 21.32,1.98 22,3C14.74,2.67 7.48,2.34 0,2L0,0Z" style="fill:rgb(103,232,249);fill-rule:nonzero;"/>
    </g>
    <g transform="matrix(1,0,0,1,268,376)">
        <path d="M0,0C0.99,0.495 0.99,0.495 2,1C2.422,2.961 2.422,2.961 2.75,5.375C3.159,7.816 3.159,7.816 4,10C6.952,12.147 6.952,12.147 10,13L10,16C7.062,15.188 7.062,15.188 4,14C3.67,13.01 3.34,12.02 3,11L1,11C-0.203,8.595 -0.101,7.05 -0.062,4.375C-0.053,3.558 -0.044,2.74 -0.035,1.898C-0.024,1.272 -0.012,0.645 0,0Z" style="fill:rgb(103,232,249);fill-rule:nonzero;"/>
    </g>
    <g transform="matrix(1,0,0,1,347,297)">
        <path d="M0,0C6.331,0.333 10.816,3.697 16,7C17.664,8.004 19.33,9.006 21,10C20.01,10.495 20.01,10.495 19,11C12.24,8.649 6.008,4.848 0,1L0,0Z" style="fill:rgb(103,232,249);fill-rule:nonzero;"/>
    </g>
    <g transform="matrix(1,0,0,1,339,276)">
        <path d="M0,0C0.66,0.66 1.32,1.32 2,2C-0.318,4.318 -5.956,3.461 -9.094,3.621C-10.053,3.746 -11.012,3.871 -12,4C-12.33,4.66 -12.66,5.32 -13,6C-12.875,4.188 -12.875,4.188 -12,2C-7.722,-0.885 -4.954,-1.464 0,0Z" style="fill:rgb(103,232,249);fill-rule:nonzero;"/>
    </g>
    <g transform="matrix(1,0,0,1,963,380)">
        <path d="M0,0C2.417,2.996 4.054,5.991 5.625,9.5C6.05,10.438 6.476,11.377 6.914,12.344C7.825,14.572 8.502,16.652 9,19C6,18 6,18 4.395,15.488C3.872,14.44 3.35,13.392 2.812,12.312C2.283,11.277 1.753,10.242 1.207,9.176C-0.051,5.866 -0.237,3.506 0,0Z" style="fill:rgb(103,232,249);fill-rule:nonzero;"/>
    </g>
    <g transform="matrix(1,0,0,1,906,379)">
        <path d="M0,0C4.217,-0.074 8.435,-0.129 12.653,-0.165C14.087,-0.18 15.522,-0.2 16.956,-0.226C19.019,-0.263 21.081,-0.28 23.145,-0.293C25.006,-0.317 25.006,-0.317 26.906,-0.341C30,0 30,0 33,3L24,3L24,2C16.08,1.67 8.16,1.34 0,1L0,0Z" style="fill:rgb(103,232,249);fill-rule:nonzero;"/>
    </g>
    <g transform="matrix(1,0,0,1,782,312)">
        <path d="M0,0C1,4 1,4 0.062,6.25C-0.288,6.827 -0.639,7.405 -1,8L-3,8C-3.248,8.784 -3.495,9.568 -3.75,10.375C-5.154,13.323 -6.007,13.902 -9,15L-9,17C-9.66,16.67 -10.32,16.34 -11,16C-7.37,10.72 -3.74,5.44 0,0Z" style="fill:rgb(103,232,249);fill-rule:nonzero;"/>
    </g>
    <g transform="matrix(1,0,0,1,271,310)">
        <path d="M0,0C0.99,0.33 1.98,0.66 3,1C2.51,1.402 2.02,1.804 1.516,2.219C-0.4,4.47 -0.347,5.587 -0.25,8.5C-0.235,9.273 -0.219,10.047 -0.203,10.844C-0.065,13.182 -0.065,13.182 1,16C1.66,16.33 2.32,16.66 3,17C0,17 0,17 -1.664,15.809C-3.409,13.447 -3.401,11.977 -3.375,9.062C-3.383,8.208 -3.39,7.353 -3.398,6.473C-2.932,3.577 -1.912,2.181 0,0Z" style="fill:rgb(103,232,249);fill-rule:nonzero;"/>
    </g>
    <g transform="matrix(1,0,0,1,287,309)">
        <path d="M0,0L0,2C-4.95,1.67 -9.9,1.34 -15,1C-10.041,-3.959 -5.829,-3.886 0,0Z" style="fill:rgb(103,232,249);fill-rule:nonzero;"/>
    </g>
    <g transform="matrix(1,0,0,1,894,304)">
        <path d="M0,0L2,0C1.477,4.903 -0.001,8.184 -2.562,12.375C-3.203,13.435 -3.844,14.494 -4.504,15.586C-4.998,16.383 -5.491,17.179 -6,18C-6.66,17.67 -7.32,17.34 -8,17C-7.674,16.359 -7.348,15.719 -7.012,15.059C-4.505,10.097 -2.122,5.138 0,0Z" style="fill:rgb(103,232,249);fill-rule:nonzero;"/>
    </g>
    <g transform="matrix(1,0,0,1,317,301)">
        <path d="M0,0C-5.94,3.3 -11.88,6.6 -18,10L-18,7C-15.758,5.63 -13.508,4.279 -11.25,2.938C-10.616,2.548 -9.982,2.158 -9.328,1.756C-4.453,-1.113 -4.453,-1.113 0,0Z" style="fill:rgb(103,232,249);fill-rule:nonzero;"/>
    </g>
    <g transform="matrix(1,0,0,1,778,372)">
        <path d="M0,0C1.562,2.343 3.108,4.69 4.625,7.062C5.071,7.755 5.517,8.447 5.977,9.16C7,11 7,11 7,13C4.03,12.505 4.03,12.505 1,12C0.639,10.189 0.286,8.376 -0.062,6.562C-0.26,5.553 -0.457,4.544 -0.66,3.504C-0.772,2.678 -0.884,1.851 -1,1C-0.67,0.67 -0.34,0.34 0,0Z" style="fill:rgb(103,232,249);fill-rule:nonzero;"/>
    </g>
    <g transform="matrix(1,0,0,1,895.3125,378.9375)">
        <path d="M0,0C1.603,0.014 1.603,0.014 3.238,0.027C4.047,0.039 4.855,0.051 5.688,0.062C5.048,0.372 4.409,0.681 3.75,1C1.751,1.897 1.751,1.897 0.688,3.062C-1.332,3.135 -3.354,3.146 -5.375,3.125C-6.48,3.116 -7.584,3.107 -8.723,3.098C-10.005,3.08 -10.005,3.08 -11.312,3.062L-11.312,1.062C-7.475,0.158 -3.937,-0.043 0,0Z" style="fill:rgb(103,232,249);fill-rule:nonzero;"/>
    </g>
    <g transform="matrix(1,0,0,1,945,340)">
        <path d="M0,0C1.856,2.784 3.269,5.476 4.688,8.5C5.145,9.459 5.603,10.418 6.074,11.406C7,14 7,14 6,17C3,15 3,15 2.27,12.617C2.119,11.712 1.968,10.807 1.812,9.875C1.654,8.965 1.495,8.055 1.332,7.117C1.168,6.069 1.168,6.069 1,5L-1,5C-0.67,3.35 -0.34,1.7 0,0Z" style="fill:rgb(103,232,249);fill-rule:nonzero;"/>
    </g>
    <g transform="matrix(1,0,0,1,856,388)">
        <path d="M0,0L3,0C2.631,6.147 1.099,8.69 -3,13C-3.93,10.449 -4.086,9.26 -3.223,6.641C-2.84,5.852 -2.457,5.063 -2.062,4.25C-1.682,3.451 -1.302,2.652 -0.91,1.828C-0.61,1.225 -0.309,0.622 0,0Z" style="fill:rgb(103,232,249);fill-rule:nonzero;"/>
    </g>
    <g transform="matrix(1,0,0,1,327,345)">
        <path d="M0,0L3,0C3.33,1.65 3.66,3.3 4,5L2,5C1.67,6.65 1.34,8.3 1,10L-3,10L-3,8C-3.66,7.67 -4.32,7.34 -5,7C-0.25,4 -0.25,4 2,4C1.34,2.68 0.68,1.36 0,0Z" style="fill:rgb(103,232,249);fill-rule:nonzero;"/>
    </g>
    <g transform="matrix(1,0,0,1,508,351)">
        <path d="M0,0C1,3 1,3 -0.434,5.918C-1.095,6.997 -1.756,8.076 -2.438,9.188C-3.096,10.274 -3.755,11.361 -4.434,12.48C-5.209,13.728 -5.209,13.728 -6,15C-6.977,12.406 -7.132,11.326 -6.074,8.711C-5.617,7.94 -5.159,7.169 -4.688,6.375C-4.238,5.599 -3.788,4.823 -3.324,4.023C-2,2 -2,2 0,0Z" style="fill:rgb(103,232,249);fill-rule:nonzero;"/>
    </g>
    <g transform="matrix(1,0,0,1,329,396)">
        <path d="M0,0C1.485,0.99 1.485,0.99 3,2C5.64,2.818 8.303,3.381 11,4L11,6C6.545,6.495 6.545,6.495 2,7C0,3 0,3 0,0Z" style="fill:rgb(103,232,249);fill-rule:nonzero;"/>
    </g>
    <g transform="matrix(1,0,0,1,790,388)">
        <path d="M0,0C5.61,0.33 11.22,0.66 17,1C16.67,1.66 16.34,2.32 16,3C13.896,3.081 11.792,3.139 9.688,3.188C8.516,3.222 7.344,3.257 6.137,3.293C3,3 3,3 0,0Z" style="fill:rgb(103,232,249);fill-rule:nonzero;"/>
    </g>
    <g transform="matrix(1,0,0,1,390,354)">
        <path d="M0,0L1,0L1,12L-2,12L-2,2L0,2L0,0Z" style="fill:rgb(103,232,249);fill-rule:nonzero;"/>
    </g>
    <g transform="matrix(1,0,0,1,460,334)">
        <path d="M0,0C4.008,3.674 6.526,7.143 9,12L9,14C5.232,12.744 4.788,11.49 2.812,8.125C2.283,7.241 1.753,6.356 1.207,5.445C0,3 0,3 0,0Z" style="fill:rgb(103,232,249);fill-rule:nonzero;"/>
    </g>
    <g transform="matrix(1,0,0,1,540,300)">
        <path d="M0,0C0.66,0.33 1.32,0.66 2,1C0.692,3.169 -0.621,5.336 -1.938,7.5C-2.311,8.12 -2.684,8.74 -3.068,9.379C-4.018,10.936 -5.006,12.47 -6,14L-7,14C-7.371,8.438 -7.371,8.438 -5.625,6.375C-5.089,5.921 -4.553,5.468 -4,5C-3.649,4.299 -3.299,3.598 -2.938,2.875C-2,1 -2,1 0,0Z" style="fill:rgb(103,232,249);fill-rule:nonzero;"/>
    </g>
    <g transform="matrix(1,0,0,1,478,327)">
        <path d="M0,0C3.912,1.48 5.227,3.54 7.25,7.125C8.031,8.49 8.031,8.49 8.828,9.883C9.408,10.931 9.408,10.931 10,12C8.098,11.645 8.098,11.645 6,11C4.438,8.688 4.438,8.688 3,6C2.443,5.278 1.886,4.556 1.312,3.812C0,2 0,2 0,0Z" style="fill:rgb(103,232,249);fill-rule:nonzero;"/>
    </g>
    <g transform="matrix(1,0,0,1,784,404)">
        <path d="M0,0C0.804,0.144 1.609,0.289 2.438,0.438C6.614,1.097 10.796,1.561 15,2L15,4C11.426,5.191 9.491,4.735 5.812,4.062C4.726,3.868 3.639,3.673 2.52,3.473C1.688,3.317 0.857,3.161 0,3L0,0Z" style="fill:rgb(103,232,249);fill-rule:nonzero;"/>
    </g>
    <g transform="matrix(1,0,0,1,864,371)">
        <path d="M0,0C0.33,1.32 0.66,2.64 1,4C0.01,4.495 0.01,4.495 -1,5C-1.217,6.33 -1.217,6.33 -1.438,7.688C-2.044,11.26 -3.269,13.839 -5,17L-7,17C-5.167,11.001 -2.927,5.551 0,0Z" style="fill:rgb(103,232,249);fill-rule:nonzero;"/>
    </g>
    <g transform="matrix(1,0,0,1,314,365)">
        <path d="M0,0C0.99,0.33 1.98,0.66 3,1C3.33,2.98 3.66,4.96 4,7L-2,7C-2.33,5.35 -2.66,3.7 -3,2C-1.515,2.99 -1.515,2.99 0,4L0,0Z" style="fill:rgb(103,232,249);fill-rule:nonzero;"/>
    </g>
    <g transform="matrix(1,0,0,1,781,349)">
        <path d="M0,0C1.371,3.69 0.6,5.709 -0.938,9.25C-1.318,10.142 -1.698,11.034 -2.09,11.953C-2.39,12.629 -2.691,13.304 -3,14L-4,14C-3.859,12.395 -3.712,10.791 -3.562,9.188C-3.481,8.294 -3.4,7.401 -3.316,6.48C-3,4 -3,4 -2,1C-1.34,0.67 -0.68,0.34 0,0Z" style="fill:rgb(103,232,249);fill-rule:nonzero;"/>
    </g>
    <g transform="matrix(1,0,0,1,351,326)">
        <path d="M0,0C1.938,0.75 1.938,0.75 4,2C4.75,4.125 4.75,4.125 5,6C2,6 2,6 -1,5C-1.33,5.99 -1.66,6.98 -2,8C-2.33,6.02 -2.66,4.04 -3,2C-2.01,1.34 -1.02,0.68 0,0Z" style="fill:rgb(103,232,249);fill-rule:nonzero;"/>
    </g>
    <g transform="matrix(1,0,0,1,450,318)">
        <path d="M0,0C3.273,3.097 5.975,5.95 8,10L8,13L6,13C4.492,10.918 4.492,10.918 2.875,8.188C2.336,7.294 1.797,6.401 1.242,5.48C0,3 0,3 0,0Z" style="fill:rgb(103,232,249);fill-rule:nonzero;"/>
    </g>
    <g transform="matrix(1,0,0,1,817,297)">
        <path d="M0,0C0.66,0.33 1.32,0.66 2,1C0.901,2.774 -0.205,4.544 -1.312,6.312C-2.235,7.792 -2.235,7.792 -3.176,9.301C-4.663,11.502 -6.04,13.233 -8,15C-7.452,10.717 -5.976,8.149 -3.438,4.688C-2.797,3.804 -2.156,2.921 -1.496,2.012C-0.756,1.016 -0.756,1.016 0,0Z" style="fill:rgb(103,232,249);fill-rule:nonzero;"/>
    </g>
    <g transform="matrix(1,0,0,1,831,394)">
        <path d="M0,0L2,0C0.574,3.452 -1.097,5.101 -4.125,7.25C-5.212,8.031 -5.212,8.031 -6.32,8.828C-6.875,9.215 -7.429,9.602 -8,10C-8.66,9.34 -9.32,8.68 -10,8C-9.446,7.59 -8.891,7.18 -8.32,6.758C-7.596,6.219 -6.871,5.68 -6.125,5.125C-5.046,4.324 -5.046,4.324 -3.945,3.508C-1.917,2.001 -1.917,2.001 0,0Z" style="fill:rgb(103,232,249);fill-rule:nonzero;"/>
    </g>
    <g transform="matrix(1,0,0,1,327,321)">
        <path d="M0,0L15,0L15,2C16.32,2.33 17.64,2.66 19,3L9,3L9,2C6.03,1.67 3.06,1.34 0,1L0,0Z" style="fill:rgb(103,232,249);fill-rule:nonzero;"/>
    </g>
    <g transform="matrix(1,0,0,1,505,319)">
        <path d="M0,0C0.66,0.99 1.32,1.98 2,3C0.88,4.483 -0.246,5.961 -1.375,7.438C-2.315,8.673 -2.315,8.673 -3.273,9.934C-5,12 -5,12 -7,13C-5.358,8.224 -2.735,4.206 0,0Z" style="fill:rgb(103,232,249);fill-rule:nonzero;"/>
    </g>
    <g transform="matrix(1,0,0,1,328,322)">
        <path d="M0,0L9,0C8.67,0.66 8.34,1.32 8,2L2,2L2,4C2.66,4.33 3.32,4.66 4,5L1,5L1,7L-1,7C-0.67,4.69 -0.34,2.38 0,0Z" style="fill:rgb(103,232,249);fill-rule:nonzero;"/>
    </g>
    <g transform="matrix(1,0,0,1,871,357)">
        <path d="M0,0C1,2 1,2 0.188,4.875C-0.755,7.356 -1.744,9.668 -3,12L-5,12C-4.373,7.739 -3.132,3.132 0,0Z" style="fill:rgb(103,232,249);fill-rule:nonzero;"/>
    </g>
    <g transform="matrix(1,0,0,1,874,397)">
        <path d="M0,0C0.99,0.66 1.98,1.32 3,2C2.01,4.31 1.02,6.62 0,9C-1.65,8.67 -3.3,8.34 -5,8C-3.35,5.36 -1.7,2.72 0,0Z" style="fill:rgb(103,232,249);fill-rule:nonzero;"/>
    </g>
    <g transform="matrix(1,0,0,1,337,352)">
        <path d="M0,0L3,0C6.149,3.89 7.527,7.028 8,12C5.459,9.697 3.929,7.327 2.312,4.312C1.876,3.504 1.439,2.696 0.988,1.863C0.662,1.248 0.336,0.634 0,0Z" style="fill:rgb(103,232,249);fill-rule:nonzero;"/>
    </g>
    <g transform="matrix(1,0,0,1,486,339)">
        <path d="M0,0C3,1 3,1 4,3C4.99,2.01 5.98,1.02 7,0C7.99,0.33 8.98,0.66 10,1C8.35,2.65 6.7,4.3 5,6C3.062,5.25 3.062,5.25 1,4C0.25,1.875 0.25,1.875 0,0Z" style="fill:rgb(103,232,249);fill-rule:nonzero;"/>
    </g>
    <g transform="matrix(1,0,0,1,347,340)">
        <path d="M0,0C0.66,0.33 1.32,0.66 2,1L2,3C0.367,4.375 -1.302,5.706 -3,7C-3.66,7.66 -4.32,8.32 -5,9C-5.75,7.25 -5.75,7.25 -6,5C-4.149,2.767 -2.596,1.298 0,0Z" style="fill:rgb(103,232,249);fill-rule:nonzero;"/>
    </g>
    <g transform="matrix(1,0,0,1,303,390)">
        <path d="M0,0C3.96,1.98 7.92,3.96 12,6C11.34,6.66 10.68,7.32 10,8C8.515,7.241 7.037,6.467 5.562,5.688C4.739,5.258 3.915,4.829 3.066,4.387C1,3 1,3 0,0Z" style="fill:rgb(103,232,249);fill-rule:nonzero;"/>
    </g>
    <g transform="matrix(1,0,0,1,910,316)">
        <path d="M0,0L4,0L4,2L2,2C0.35,4.97 -1.3,7.94 -3,11C-4.397,6.81 -2.864,4.872 -1,1C-0.67,0.67 -0.34,0.34 0,0Z" style="fill:rgb(103,232,249);fill-rule:nonzero;"/>
    </g>
    <g transform="matrix(1,0,0,1,462,298)">
        <path d="M0,0C2.12,2.615 4.131,5.196 6,8C5.625,10.188 5.625,10.188 5,12C1.352,8.117 0.415,5.288 0,0Z" style="fill:rgb(103,232,249);fill-rule:nonzero;"/>
    </g>
    <g transform="matrix(1,0,0,1,399,382)">
        <path d="M0,0C0.75,1.75 0.75,1.75 1,4C-1.518,7.293 -4.109,8.703 -8,10C-6.664,5.992 -4.231,4.625 -1,2C-0.67,1.34 -0.34,0.68 0,0Z" style="fill:rgb(103,232,249);fill-rule:nonzero;"/>
    </g>
    <g transform="matrix(1,0,0,1,437,298)">
        <path d="M0,0C6.247,6.078 6.247,6.078 8,9C7.67,9.99 7.34,10.98 7,12C5.828,10.379 4.662,8.753 3.5,7.125C2.85,6.22 2.201,5.315 1.531,4.383C0,2 0,2 0,0Z" style="fill:rgb(103,232,249);fill-rule:nonzero;"/>
    </g>
    <g transform="matrix(1,0,0,1,521,293)">
        <path d="M0,0C1,2 1,2 0.328,4.129C-0.028,4.932 -0.383,5.735 -0.75,6.562C-1.095,7.368 -1.441,8.174 -1.797,9.004C-3,11 -3,11 -6,12C-4.681,7.385 -2.786,3.901 0,0Z" style="fill:rgb(103,232,249);fill-rule:nonzero;"/>
    </g>
    <g transform="matrix(1,0,0,1,332,372)">
        <path d="M0,0L3,0L3,2C4.32,2.33 5.64,2.66 7,3L7,5L-1,5L-1,3L2,3L2,1C1.34,0.67 0.68,0.34 0,0Z" style="fill:rgb(103,232,249);fill-rule:nonzero;"/>
    </g>
    <g transform="matrix(1,0,0,1,511,344)">
        <path d="M0,0C1.32,0.33 2.64,0.66 4,1C1.525,4.465 1.525,4.465 -1,8C-1.66,7.34 -2.32,6.68 -3,6C-2.67,5.01 -2.34,4.02 -2,3L0,3L0,0Z" style="fill:rgb(103,232,249);fill-rule:nonzero;"/>
    </g>
    <g transform="matrix(1,0,0,1,900,339)">
        <path d="M0,0C0.955,2.17 1.144,3.563 0.398,5.824C-0.359,7.568 -1.176,9.286 -2,11L-4,11C-3.49,6.611 -2.478,3.663 0,0Z" style="fill:rgb(103,232,249);fill-rule:nonzero;"/>
    </g>
    <g transform="matrix(1,0,0,1,499,331)">
        <path d="M0,0C0.75,1.75 0.75,1.75 1,4C-0.938,6.25 -0.938,6.25 -3,8C-3.99,7.67 -4.98,7.34 -6,7C-2.25,1.125 -2.25,1.125 0,0Z" style="fill:rgb(103,232,249);fill-rule:nonzero;"/>
    </g>
    <g transform="matrix(1,0,0,1,367,319)">
        <path d="M0,0C0.33,1.65 0.66,3.3 1,5L-2,5L-2,3L-7,3L-7,1C-4.537,-0.231 -2.72,-0.072 0,0Z" style="fill:rgb(103,232,249);fill-rule:nonzero;"/>
    </g>
    <g transform="matrix(1,0,0,1,378,375)">
        <path d="M0,0C0.66,0.33 1.32,0.66 2,1L2,9C0.35,9.33 -1.3,9.66 -3,10C-2.34,9.67 -1.68,9.34 -1,9C-1.021,7.886 -1.041,6.772 -1.062,5.625C-1,2 -1,2 0,0Z" style="fill:rgb(103,232,249);fill-rule:nonzero;"/>
    </g>
    <g transform="matrix(1,0,0,1,958,370)">
        <path d="M0,0C3.312,1.656 3.77,4.645 5,8C5.188,10.938 5.188,10.938 5,13C3.29,10.435 2.096,8.12 0.875,5.312C0.522,4.504 0.169,3.696 -0.195,2.863C-0.461,2.248 -0.726,1.634 -1,1C-0.67,0.67 -0.34,0.34 0,0Z" style="fill:rgb(103,232,249);fill-rule:nonzero;"/>
    </g>
    <g transform="matrix(1,0,0,1,763,341)">
        <path d="M0,0C0.66,0.66 1.32,1.32 2,2C1.01,4.31 0.02,6.62 -1,9L-3,9C-3.262,5.854 -3.248,4.382 -1.5,1.688C-1.005,1.131 -0.51,0.574 0,0Z" style="fill:rgb(103,232,249);fill-rule:nonzero;"/>
    </g>
    <g transform="matrix(1,0,0,1,808,332)">
        <path d="M0,0C-2.991,3.336 -5.932,5.151 -10,7C-7.655,1.769 -5.983,-0.485 0,0Z" style="fill:rgb(103,232,249);fill-rule:nonzero;"/>
    </g>
    <g transform="matrix(1,0,0,1,916,325)">
        <path d="M0,0C3.357,2.238 3.58,2.933 4.688,6.625C4.939,7.442 5.19,8.26 5.449,9.102C5.722,10.041 5.722,10.041 6,11C5.01,10.67 4.02,10.34 3,10C1.253,6.507 0,3.932 0,0Z" style="fill:rgb(103,232,249);fill-rule:nonzero;"/>
    </g>
    <g transform="matrix(1,0,0,1,319,312)">
        <path d="M0,0L0,3C-2.957,4.478 -5.742,4.06 -9,4C-7.026,1.477 -6.033,1.007 -2.812,0.312C-1.42,0.158 -1.42,0.158 0,0Z" style="fill:rgb(103,232,249);fill-rule:nonzero;"/>
    </g>
    <g transform="matrix(1,0,0,1,775,400)">
        <path d="M0,0C5.75,1.75 5.75,1.75 8,4C7.34,4.66 6.68,5.32 6,6C2.535,4.02 2.535,4.02 -1,2C-0.67,1.34 -0.34,0.68 0,0Z" style="fill:rgb(103,232,249);fill-rule:nonzero;"/>
    </g>
    <g transform="matrix(1,0,0,1,322,382)">
        <path d="M0,0C1.32,0.66 2.64,1.32 4,2L4,7C2.68,6.01 1.36,5.02 0,4C-0.33,4.66 -0.66,5.32 -1,6C-1.043,4.334 -1.041,2.666 -1,1C-0.67,0.67 -0.34,0.34 0,0Z" style="fill:rgb(103,232,249);fill-rule:nonzero;"/>
    </g>
    <g transform="matrix(1,0,0,1,294,361)">
        <path d="M0,0L0,3C-0.763,3.124 -1.526,3.248 -2.312,3.375C-5.203,3.881 -5.203,3.881 -8,6C-7.625,3.562 -7.625,3.562 -7,1C-4.537,-0.231 -2.72,-0.072 0,0Z" style="fill:rgb(103,232,249);fill-rule:nonzero;"/>
    </g>
    <g transform="matrix(1,0,0,1,344,360)">
        <path d="M0,0C0.99,0.495 0.99,0.495 2,1L2,3C2.949,2.814 3.897,2.629 4.875,2.438C8,2 8,2 10,3L10,5C7.03,4.67 4.06,4.34 1,4C0.67,2.68 0.34,1.36 0,0Z" style="fill:rgb(103,232,249);fill-rule:nonzero;"/>
    </g>
    <g transform="matrix(1,0,0,1,369,309)">
        <path d="M0,0L4,0L4,2C6.475,2.99 6.475,2.99 9,4L9,6C5.917,4.801 2.937,3.523 0,2L0,0Z" style="fill:rgb(103,232,249);fill-rule:nonzero;"/>
    </g>
    <g transform="matrix(1,0,0,1,799,406)">
        <path d="M0,0L7,0C6.67,0.99 6.34,1.98 6,3L-2,3C-1.34,2.67 -0.68,2.34 0,2L0,0Z" style="fill:rgb(103,232,249);fill-rule:nonzero;"/>
    </g>
    <g transform="matrix(1,0,0,1,290,365)">
        <path d="M0,0C0.99,0.33 1.98,0.66 3,1C2.01,2.485 2.01,2.485 1,4C1.66,4.66 2.32,5.32 3,6C1.35,6.66 -0.3,7.32 -2,8C-2.33,7.34 -2.66,6.68 -3,6C-2.066,3.969 -1.068,1.965 0,0Z" style="fill:rgb(103,232,249);fill-rule:nonzero;"/>
    </g>
    <g transform="matrix(1,0,0,1,354,341)">
        <path d="M0,0C2.228,2.228 2.692,3.658 3.625,6.625C4.016,7.851 4.016,7.851 4.414,9.102C4.607,9.728 4.801,10.355 5,11C2,10 2,10 0.812,7.75C0.001,5.002 -0.163,2.846 0,0Z" style="fill:rgb(103,232,249);fill-rule:nonzero;"/>
    </g>
    <g transform="matrix(1,0,0,1,905,324)">
        <path d="M0,0C1.188,1.562 1.188,1.562 2,4C0.625,7.75 0.625,7.75 -1,11L-3,11C-2.328,7.194 -1.273,3.648 0,0Z" style="fill:rgb(103,232,249);fill-rule:nonzero;"/>
    </g>
    <g transform="matrix(1,0,0,1,376,364)">
        <path d="M0,0C1.172,0.783 2.338,1.577 3.5,2.375C4.475,3.036 4.475,3.036 5.469,3.711C5.974,4.136 6.479,4.562 7,5L7,7C3.745,6.651 2.981,5.979 0.75,3.438C-0.116,2.231 -0.116,2.231 -1,1C-0.67,0.67 -0.34,0.34 0,0Z" style="fill:rgb(103,232,249);fill-rule:nonzero;"/>
    </g>
    <g transform="matrix(1,0,0,1,364,349)">
        <path d="M0,0L2,0C0.63,3.995 -1.257,6.8 -4,10C-4.33,9.34 -4.66,8.68 -5,8C-4.074,6.055 -4.074,6.055 -2.688,3.875C-2.238,3.151 -1.788,2.426 -1.324,1.68C-0.887,1.125 -0.45,0.571 0,0Z" style="fill:rgb(103,232,249);fill-rule:nonzero;"/>
    </g>
    <g transform="matrix(1,0,0,1,326,325)">
        <path d="M0,0C0.66,0.33 1.32,0.66 2,1C2.22,4.856 1.604,7.492 0,11C-0.66,10.34 -1.32,9.68 -2,9C-1.758,6.836 -1.758,6.836 -1.125,4.375C-0.921,3.558 -0.718,2.74 -0.508,1.898C-0.34,1.272 -0.173,0.645 0,0Z" style="fill:rgb(103,232,249);fill-rule:nonzero;"/>
    </g>
    <g transform="matrix(1,0,0,1,399,323)">
        <path d="M0,0C0.33,0.99 0.66,1.98 1,3C-1.31,4.32 -3.62,5.64 -6,7L-6,4L-4,4L-4,2C-2.68,1.34 -1.36,0.68 0,0Z" style="fill:rgb(103,232,249);fill-rule:nonzero;"/>
    </g>
    <g transform="matrix(1,0,0,1,799,323)">
        <path d="M0,0C0.66,0.33 1.32,0.66 2,1C0.35,3.64 -1.3,6.28 -3,9C-3.66,8.01 -4.32,7.02 -5,6C-3.35,4.02 -1.7,2.04 0,0Z" style="fill:rgb(103,232,249);fill-rule:nonzero;"/>
    </g>
    <g transform="matrix(1,0,0,1,474,318)">
        <path d="M0,0C2.743,3.2 4.63,6.005 6,10C2.261,7.343 0.35,5.419 -1,1C-0.67,0.67 -0.34,0.34 0,0Z" style="fill:rgb(103,232,249);fill-rule:nonzero;"/>
    </g>
    <g transform="matrix(1,0,0,1,934,318)">
        <path d="M0,0C4.238,2.826 3.977,5.122 5,10C1.328,6.92 0.432,4.752 0,0Z" style="fill:rgb(103,232,249);fill-rule:nonzero;"/>
    </g>
    <g transform="matrix(1,0,0,1,619,291)">
        <path d="M0,0L10,0C10.33,0.99 10.66,1.98 11,3C7.37,2.67 3.74,2.34 0,2L0,0Z" style="fill:rgb(103,232,249);fill-rule:nonzero;"/>
    </g>
    <g transform="matrix(1,0,0,1,342,417)">
        <path d="M0,0C0.33,0.99 0.66,1.98 1,3C-2.089,5.059 -2.709,5.239 -6.188,5.125C-8.075,5.063 -8.075,5.063 -10,5L-10,4C-9.362,3.795 -8.724,3.59 -8.066,3.379C-7.24,3.109 -6.414,2.84 -5.562,2.562C-4.739,2.296 -3.915,2.029 -3.066,1.754C-1.038,1.178 -1.038,1.178 0,0Z" style="fill:rgb(103,232,249);fill-rule:nonzero;"/>
    </g>
    <g transform="matrix(1,0,0,1,328,355)">
        <path d="M0,0L0,2C-6.75,6 -6.75,6 -9,6L-9,4C-2.25,0 -2.25,0 0,0Z" style="fill:rgb(103,232,249);fill-rule:nonzero;"/>
    </g>
    <g transform="matrix(1,0,0,1,306,326)">
        <path d="M0,0C0.33,0.99 0.66,1.98 1,3L3,3C2.67,5.31 2.34,7.62 2,10C1.01,9.67 0.02,9.34 -1,9C-0.649,8.443 -0.299,7.886 0.062,7.312C1.218,4.461 0.81,2.915 0,0Z" style="fill:rgb(103,232,249);fill-rule:nonzero;"/>
    </g>
    <g transform="matrix(1,0,0,1,924,293)">
        <path d="M0,0C2.296,3.445 2.54,5.938 3,10C1,9 1,9 -0.188,6.688C-1.036,3.88 -0.999,2.698 0,0Z" style="fill:rgb(103,232,249);fill-rule:nonzero;"/>
    </g>
    <g transform="matrix(1,0,0,1,500,395)">
        <path d="M0,0L1,0C1.33,3.63 1.66,7.26 2,11C1.01,11.33 0.02,11.66 -1,12C-0.67,8.04 -0.34,4.08 0,0Z" style="fill:rgb(103,232,249);fill-rule:nonzero;"/>
    </g>
    <g transform="matrix(1,0,0,1,785,384)">
        <path d="M0,0C3.465,1.485 3.465,1.485 7,3C5.02,3.99 5.02,3.99 3,5C1.68,3.68 0.36,2.36 -1,1C-0.67,0.67 -0.34,0.34 0,0Z" style="fill:rgb(103,232,249);fill-rule:nonzero;"/>
    </g>
    <g transform="matrix(1,0,0,1,778,372)">
        <path d="M0,0C1.991,2.986 2.941,5.597 4,9L2,9C0.438,6.188 0.438,6.188 -1,3C-0.67,2.01 -0.34,1.02 0,0Z" style="fill:rgb(103,232,249);fill-rule:nonzero;"/>
    </g>
    <g transform="matrix(1,0,0,1,822,364)">
        <path d="M0,0L1,0C1.33,3.63 1.66,7.26 2,11C1.01,11.66 0.02,12.32 -1,13C-1.33,11.68 -1.66,10.36 -2,9L0,9L0,0Z" style="fill:rgb(103,232,249);fill-rule:nonzero;"/>
    </g>
    <g transform="matrix(1,0,0,1,304,365)">
        <path d="M0,0C-5.273,3.223 -5.273,3.223 -7,4C-7.66,3.67 -8.32,3.34 -9,3C-5.836,-0.308 -4.502,-1.351 0,0Z" style="fill:rgb(103,232,249);fill-rule:nonzero;"/>
    </g>
    <g transform="matrix(1,0,0,1,475,358)">
        <path d="M0,0L2,0C3.562,2.812 3.562,2.812 5,6C4.67,6.99 4.34,7.98 4,9C1.497,6.062 0.531,3.821 0,0Z" style="fill:rgb(103,232,249);fill-rule:nonzero;"/>
    </g>
    <g transform="matrix(1,0,0,1,303,346)">
        <path d="M0,0C0.66,0.66 1.32,1.32 2,2C0.35,4.31 -1.3,6.62 -3,9C-3.66,8.67 -4.32,8.34 -5,8C-3.35,5.36 -1.7,2.72 0,0Z" style="fill:rgb(103,232,249);fill-rule:nonzero;"/>
    </g>
    <g transform="matrix(1,0,0,1,372,338)">
        <path d="M0,0C0.66,0.33 1.32,0.66 2,1C0.188,4 0.188,4 -2,7L-5,7C-3.35,4.69 -1.7,2.38 0,0Z" style="fill:rgb(103,232,249);fill-rule:nonzero;"/>
    </g>
    <g transform="matrix(1,0,0,1,284,329)">
        <path d="M0,0C2.993,1.098 3.846,1.677 5.25,4.625C5.497,5.409 5.745,6.192 6,7C3.007,5.902 2.154,5.323 0.75,2.375C0.502,1.591 0.255,0.807 0,0Z" style="fill:rgb(103,232,249);fill-rule:nonzero;"/>
    </g>
    <g transform="matrix(1,0,0,1,344,306)">
        <path d="M0,0L2,0C3.858,3.135 4.201,5.375 4,9C1.497,6.062 0.531,3.821 0,0Z" style="fill:rgb(103,232,249);fill-rule:nonzero;"/>
    </g>
    <g transform="matrix(1,0,0,1,347,400)">
        <path d="M0,0C0.66,0.66 1.32,1.32 2,2C-1.625,5 -1.625,5 -5,5C-4,2 -4,2 -1.938,0.812C-1.298,0.544 -0.659,0.276 0,0Z" style="fill:rgb(103,232,249);fill-rule:nonzero;"/>
    </g>
    <g transform="matrix(1,0,0,1,368,393)">
        <path d="M0,0L2,1L0,0ZM0,1C-0.33,1.99 -0.66,2.98 -1,4C-3.562,5.188 -3.562,5.188 -6,6C-6.33,5.34 -6.66,4.68 -7,4C-2.25,1 -2.25,1 0,1Z" style="fill:rgb(103,232,249);fill-rule:nonzero;"/>
    </g>
    <g transform="matrix(1,0,0,1,814,387)">
        <path d="M0,0C-0.33,0.66 -0.66,1.32 -1,2C-3.938,2.75 -3.938,2.75 -7,3C-7.66,2.34 -8.32,1.68 -9,1C-5.804,-0.065 -3.343,-0.074 0,0Z" style="fill:rgb(103,232,249);fill-rule:nonzero;"/>
    </g>
    <g transform="matrix(1,0,0,1,369,332)">
        <path d="M0,0C-1,3 -1,3 -2.875,4.25C-5,5 -5,5 -8,4C-2.25,0 -2.25,0 0,0Z" style="fill:rgb(103,232,249);fill-rule:nonzero;"/>
    </g>
    <g transform="matrix(1,0,0,1,268,321)">
        <path d="M0,0L2,0C2.433,1.207 2.433,1.207 2.875,2.438C3.733,5.133 3.733,5.133 6,6C3,6 3,6 1.312,4.688C0,3 0,3 0,0Z" style="fill:rgb(103,232,249);fill-rule:nonzero;"/>
    </g>
    <g transform="matrix(1,0,0,1,897,297)">
        <path d="M0,0C0.33,0.99 0.66,1.98 1,3C1.66,3.33 2.32,3.66 3,4C1.68,5.65 0.36,7.3 -1,9C-2.033,6.212 -2.045,5.132 -1.062,2.25C-0.712,1.508 -0.361,0.765 0,0Z" style="fill:rgb(103,232,249);fill-rule:nonzero;"/>
    </g>
    <g transform="matrix(1,0,0,1,812,293)">
        <path d="M0,0L9,0L9,3C8.34,3.66 7.68,4.32 7,5C6.67,4.34 6.34,3.68 6,3C6.33,2.34 6.66,1.68 7,1L0,1L0,0Z" style="fill:rgb(103,232,249);fill-rule:nonzero;"/>
    </g>
</svg>
